<mxfile host="Electron" modified="2023-11-18T00:16:10.290Z" agent="Mozilla/5.0 (Windows NT 10.0; Win64; x64) AppleWebKit/537.36 (KHTML, like Gecko) draw.io/22.0.3 Chrome/114.0.5735.289 Electron/25.8.4 Safari/537.36" etag="sDTLK-mGcmcuBbdzGHOi" version="22.0.3" type="device">
  <diagram id="LkOnWeVT7-0t_uNRfe_2" name="Page-1">
    <mxGraphModel dx="1687" dy="1040" grid="0" gridSize="10" guides="1" tooltips="1" connect="1" arrows="1" fold="1" page="1" pageScale="1" pageWidth="1920" pageHeight="1200" background="#FFFFFF" math="0" shadow="0">
      <root>
        <mxCell id="0" />
        <mxCell id="1" parent="0" />
        <mxCell id="152" value="Friend List" style="shape=table;startSize=30;container=1;collapsible=0;childLayout=tableLayout;fontStyle=5;align=left;labelBackgroundColor=none;spacing=6;swimlaneLine=1;fillColor=#ffcc99;strokeColor=#36393d;shadow=1;rounded=1;swimlaneFillColor=default;fontFamily=Helvetica;fontSize=14;opacity=40;gradientColor=default;fontColor=#000000;" parent="1" vertex="1">
          <mxGeometry x="81.00000000000003" y="164.99999999999997" width="251.54998779296875" height="213.57074692670034" as="geometry" />
        </mxCell>
        <mxCell id="153" value="" style="shape=tableRow;horizontal=0;startSize=0;swimlaneHead=0;swimlaneBody=0;top=0;left=0;bottom=0;right=0;collapsible=0;dropTarget=0;fillColor=#dae8fc;points=[[0,0.5],[1,0.5]];portConstraint=eastwest;labelBackgroundColor=none;swimlaneLine=0;strokeColor=#6c8ebf;shadow=0;rounded=1;gradientColor=#7ea6e0;fontColor=#000000;fontStyle=1;opacity=40;" parent="152" vertex="1">
          <mxGeometry y="30" width="251.54998779296875" height="31" as="geometry" />
        </mxCell>
        <mxCell id="154" value="PK" style="shape=partialRectangle;html=1;whiteSpace=wrap;connectable=0;fillColor=#dae8fc;top=0;left=0;bottom=0;right=0;overflow=hidden;labelBackgroundColor=none;strokeColor=#6c8ebf;strokeWidth=0;spacing=0;spacingTop=8;spacingLeft=8;spacingRight=8;spacingBottom=6;shadow=0;rounded=1;gradientColor=#7ea6e0;fontColor=#000000;fontStyle=1;opacity=40;" parent="153" vertex="1">
          <mxGeometry width="40" height="31" as="geometry">
            <mxRectangle width="40" height="31" as="alternateBounds" />
          </mxGeometry>
        </mxCell>
        <mxCell id="155" value="_id&lt;br&gt;" style="shape=partialRectangle;html=1;whiteSpace=wrap;connectable=0;fillColor=#dae8fc;top=0;left=0;bottom=0;right=0;overflow=hidden;labelBackgroundColor=none;strokeColor=#6c8ebf;strokeWidth=0;align=left;spacing=0;spacingTop=8;spacingLeft=8;spacingRight=8;spacingBottom=6;shadow=0;rounded=1;gradientColor=#7ea6e0;fontColor=#000000;fontStyle=1;opacity=40;" parent="153" vertex="1">
          <mxGeometry x="40" width="114" height="31" as="geometry">
            <mxRectangle width="114" height="31" as="alternateBounds" />
          </mxGeometry>
        </mxCell>
        <mxCell id="156" value="BINARY(16)" style="shape=partialRectangle;html=1;whiteSpace=wrap;connectable=0;fillColor=#dae8fc;top=0;left=0;bottom=0;right=0;overflow=hidden;labelBackgroundColor=none;strokeColor=#6c8ebf;strokeWidth=0;align=left;spacing=0;spacingTop=8;spacingLeft=8;spacingRight=8;spacingBottom=6;shadow=0;rounded=1;gradientColor=#7ea6e0;fontColor=#000000;fontStyle=1;opacity=40;" parent="153" vertex="1">
          <mxGeometry x="154" width="98" height="31" as="geometry">
            <mxRectangle width="98" height="31" as="alternateBounds" />
          </mxGeometry>
        </mxCell>
        <mxCell id="157" value="" style="shape=tableRow;horizontal=0;startSize=0;swimlaneHead=0;swimlaneBody=0;top=0;left=0;bottom=0;right=0;collapsible=0;dropTarget=0;fillColor=#dae8fc;points=[[0,0.5],[1,0.5]];portConstraint=eastwest;labelBackgroundColor=none;strokeColor=#6c8ebf;shadow=0;rounded=1;gradientColor=#7ea6e0;fontColor=#000000;fontStyle=1;opacity=40;" parent="152" vertex="1">
          <mxGeometry y="61" width="251.54998779296875" height="32" as="geometry" />
        </mxCell>
        <mxCell id="158" value="FK" style="shape=partialRectangle;html=1;whiteSpace=wrap;connectable=0;fillColor=#dae8fc;top=0;left=0;bottom=0;right=0;overflow=hidden;labelBackgroundColor=none;strokeColor=#6c8ebf;strokeWidth=0;spacing=0;spacingTop=8;spacingLeft=8;spacingRight=8;spacingBottom=6;shadow=0;rounded=1;gradientColor=#7ea6e0;fontColor=#000000;fontStyle=1;opacity=40;" parent="157" vertex="1">
          <mxGeometry width="40" height="32" as="geometry">
            <mxRectangle width="40" height="32" as="alternateBounds" />
          </mxGeometry>
        </mxCell>
        <mxCell id="159" value="userId" style="shape=partialRectangle;html=1;whiteSpace=wrap;connectable=0;fillColor=#dae8fc;top=0;left=0;bottom=0;right=0;overflow=hidden;labelBackgroundColor=none;strokeColor=#6c8ebf;strokeWidth=0;spacing=0;spacingTop=8;spacingLeft=8;spacingRight=8;spacingBottom=6;align=left;shadow=0;rounded=1;gradientColor=#7ea6e0;fontColor=#000000;fontStyle=1;opacity=40;" parent="157" vertex="1">
          <mxGeometry x="40" width="114" height="32" as="geometry">
            <mxRectangle width="114" height="32" as="alternateBounds" />
          </mxGeometry>
        </mxCell>
        <mxCell id="160" value="BINARY(16)" style="shape=partialRectangle;html=1;whiteSpace=wrap;connectable=0;fillColor=#dae8fc;top=0;left=0;bottom=0;right=0;overflow=hidden;labelBackgroundColor=none;strokeColor=#6c8ebf;strokeWidth=0;spacing=0;spacingTop=8;spacingLeft=8;spacingRight=8;spacingBottom=6;align=left;shadow=0;rounded=1;gradientColor=#7ea6e0;fontColor=#000000;fontStyle=1;opacity=40;" parent="157" vertex="1">
          <mxGeometry x="154" width="98" height="32" as="geometry">
            <mxRectangle width="98" height="32" as="alternateBounds" />
          </mxGeometry>
        </mxCell>
        <mxCell id="XUXtn4tgAi1DHnVcITGY-281" style="shape=tableRow;horizontal=0;startSize=0;swimlaneHead=0;swimlaneBody=0;top=0;left=0;bottom=0;right=0;collapsible=0;dropTarget=0;fillColor=#dae8fc;points=[[0,0.5],[1,0.5]];portConstraint=eastwest;labelBackgroundColor=none;strokeColor=#6c8ebf;shadow=0;rounded=1;gradientColor=#7ea6e0;fontColor=#000000;fontStyle=1;opacity=40;" parent="152" vertex="1">
          <mxGeometry y="93" width="251.54998779296875" height="34" as="geometry" />
        </mxCell>
        <mxCell id="XUXtn4tgAi1DHnVcITGY-282" value="" style="shape=partialRectangle;html=1;whiteSpace=wrap;connectable=0;fillColor=#dae8fc;top=0;left=0;bottom=0;right=0;overflow=hidden;labelBackgroundColor=none;strokeColor=#6c8ebf;strokeWidth=0;spacing=0;spacingTop=8;spacingLeft=8;spacingRight=8;spacingBottom=6;shadow=0;rounded=1;gradientColor=#7ea6e0;fontColor=#000000;fontStyle=1;opacity=40;" parent="XUXtn4tgAi1DHnVcITGY-281" vertex="1">
          <mxGeometry width="40" height="34" as="geometry">
            <mxRectangle width="40" height="34" as="alternateBounds" />
          </mxGeometry>
        </mxCell>
        <mxCell id="XUXtn4tgAi1DHnVcITGY-283" value="friends[ ] : userId" style="shape=partialRectangle;html=1;whiteSpace=wrap;connectable=0;fillColor=#dae8fc;top=0;left=0;bottom=0;right=0;overflow=hidden;labelBackgroundColor=none;strokeColor=#6c8ebf;strokeWidth=0;spacing=0;spacingTop=8;spacingLeft=8;spacingRight=8;spacingBottom=6;align=left;shadow=0;rounded=1;gradientColor=#7ea6e0;fontColor=#000000;fontStyle=1;opacity=40;" parent="XUXtn4tgAi1DHnVcITGY-281" vertex="1">
          <mxGeometry x="40" width="114" height="34" as="geometry">
            <mxRectangle width="114" height="34" as="alternateBounds" />
          </mxGeometry>
        </mxCell>
        <mxCell id="XUXtn4tgAi1DHnVcITGY-284" value="[ BINARY(16) ]" style="shape=partialRectangle;html=1;whiteSpace=wrap;connectable=0;fillColor=#dae8fc;top=0;left=0;bottom=0;right=0;overflow=hidden;labelBackgroundColor=none;strokeColor=#6c8ebf;strokeWidth=0;spacing=0;spacingTop=8;spacingLeft=8;spacingRight=8;spacingBottom=6;align=left;shadow=0;rounded=1;gradientColor=#7ea6e0;fontColor=#000000;fontStyle=1;opacity=40;" parent="XUXtn4tgAi1DHnVcITGY-281" vertex="1">
          <mxGeometry x="154" width="98" height="34" as="geometry">
            <mxRectangle width="98" height="34" as="alternateBounds" />
          </mxGeometry>
        </mxCell>
        <mxCell id="DxMUMayIsbceb-JPfr1l-239" style="shape=tableRow;horizontal=0;startSize=0;swimlaneHead=0;swimlaneBody=0;top=0;left=0;bottom=0;right=0;collapsible=0;dropTarget=0;fillColor=#dae8fc;points=[[0,0.5],[1,0.5]];portConstraint=eastwest;labelBackgroundColor=none;strokeColor=#6c8ebf;shadow=0;rounded=1;gradientColor=#7ea6e0;fontColor=#000000;fontStyle=1;opacity=40;" parent="152" vertex="1">
          <mxGeometry y="127" width="251.54998779296875" height="32" as="geometry" />
        </mxCell>
        <mxCell id="DxMUMayIsbceb-JPfr1l-240" style="shape=partialRectangle;html=1;whiteSpace=wrap;connectable=0;fillColor=#dae8fc;top=0;left=0;bottom=0;right=0;overflow=hidden;labelBackgroundColor=none;strokeColor=#6c8ebf;strokeWidth=0;spacing=0;spacingTop=8;spacingLeft=8;spacingRight=8;spacingBottom=6;shadow=0;rounded=1;gradientColor=#7ea6e0;fontColor=#000000;fontStyle=1;opacity=40;" parent="DxMUMayIsbceb-JPfr1l-239" vertex="1">
          <mxGeometry width="40" height="32" as="geometry">
            <mxRectangle width="40" height="32" as="alternateBounds" />
          </mxGeometry>
        </mxCell>
        <mxCell id="DxMUMayIsbceb-JPfr1l-241" value="isFresh" style="shape=partialRectangle;html=1;whiteSpace=wrap;connectable=0;fillColor=#dae8fc;top=0;left=0;bottom=0;right=0;overflow=hidden;labelBackgroundColor=none;strokeColor=#6c8ebf;strokeWidth=0;spacing=0;spacingTop=8;spacingLeft=8;spacingRight=8;spacingBottom=6;align=left;shadow=0;rounded=1;gradientColor=#7ea6e0;fontColor=#000000;fontStyle=1;opacity=40;" parent="DxMUMayIsbceb-JPfr1l-239" vertex="1">
          <mxGeometry x="40" width="114" height="32" as="geometry">
            <mxRectangle width="114" height="32" as="alternateBounds" />
          </mxGeometry>
        </mxCell>
        <mxCell id="DxMUMayIsbceb-JPfr1l-242" value="BOOL" style="shape=partialRectangle;html=1;whiteSpace=wrap;connectable=0;fillColor=#dae8fc;top=0;left=0;bottom=0;right=0;overflow=hidden;labelBackgroundColor=none;strokeColor=#6c8ebf;strokeWidth=0;spacing=0;spacingTop=8;spacingLeft=8;spacingRight=8;spacingBottom=6;align=left;shadow=0;rounded=1;gradientColor=#7ea6e0;fontColor=#000000;fontStyle=1;opacity=40;" parent="DxMUMayIsbceb-JPfr1l-239" vertex="1">
          <mxGeometry x="154" width="98" height="32" as="geometry">
            <mxRectangle width="98" height="32" as="alternateBounds" />
          </mxGeometry>
        </mxCell>
        <mxCell id="169" style="shape=tableRow;horizontal=0;startSize=0;swimlaneHead=0;swimlaneBody=0;top=0;left=0;bottom=0;right=0;collapsible=0;dropTarget=0;fillColor=#dae8fc;points=[[0,0.5],[1,0.5]];portConstraint=eastwest;labelBackgroundColor=none;strokeColor=#6c8ebf;shadow=0;rounded=1;gradientColor=#7ea6e0;fontColor=#000000;fontStyle=1;opacity=40;" parent="152" vertex="1">
          <mxGeometry y="159" width="251.54998779296875" height="27" as="geometry" />
        </mxCell>
        <mxCell id="170" style="shape=partialRectangle;html=1;whiteSpace=wrap;connectable=0;fillColor=#dae8fc;top=0;left=0;bottom=0;right=0;overflow=hidden;labelBackgroundColor=none;strokeColor=#6c8ebf;strokeWidth=0;spacing=0;spacingTop=8;spacingLeft=8;spacingRight=8;spacingBottom=6;shadow=0;rounded=1;gradientColor=#7ea6e0;fontColor=#000000;fontStyle=1;opacity=40;" parent="169" vertex="1">
          <mxGeometry width="40" height="27" as="geometry">
            <mxRectangle width="40" height="27" as="alternateBounds" />
          </mxGeometry>
        </mxCell>
        <mxCell id="171" value="createdAt" style="shape=partialRectangle;html=1;whiteSpace=wrap;connectable=0;fillColor=#dae8fc;top=0;left=0;bottom=0;right=0;overflow=hidden;labelBackgroundColor=none;strokeColor=#6c8ebf;strokeWidth=0;spacing=0;spacingTop=8;spacingLeft=8;spacingRight=8;spacingBottom=6;align=left;shadow=0;rounded=1;gradientColor=#7ea6e0;fontColor=#000000;fontStyle=1;opacity=40;" parent="169" vertex="1">
          <mxGeometry x="40" width="114" height="27" as="geometry">
            <mxRectangle width="114" height="27" as="alternateBounds" />
          </mxGeometry>
        </mxCell>
        <mxCell id="172" value="DATETIME" style="shape=partialRectangle;html=1;whiteSpace=wrap;connectable=0;fillColor=#dae8fc;top=0;left=0;bottom=0;right=0;overflow=hidden;labelBackgroundColor=none;strokeColor=#6c8ebf;strokeWidth=0;spacing=0;spacingTop=8;spacingLeft=8;spacingRight=8;spacingBottom=6;align=left;shadow=0;rounded=1;gradientColor=#7ea6e0;fontColor=#000000;fontStyle=1;opacity=40;" parent="169" vertex="1">
          <mxGeometry x="154" width="98" height="27" as="geometry">
            <mxRectangle width="98" height="27" as="alternateBounds" />
          </mxGeometry>
        </mxCell>
        <mxCell id="173" style="shape=tableRow;horizontal=0;startSize=0;swimlaneHead=0;swimlaneBody=0;top=0;left=0;bottom=0;right=0;collapsible=0;dropTarget=0;fillColor=#dae8fc;points=[[0,0.5],[1,0.5]];portConstraint=eastwest;labelBackgroundColor=none;strokeColor=#6c8ebf;shadow=0;rounded=1;gradientColor=#7ea6e0;fontColor=#000000;fontStyle=1;opacity=40;" parent="152" vertex="1">
          <mxGeometry y="186" width="251.54998779296875" height="28" as="geometry" />
        </mxCell>
        <mxCell id="174" style="shape=partialRectangle;html=1;whiteSpace=wrap;connectable=0;fillColor=#dae8fc;top=0;left=0;bottom=0;right=0;overflow=hidden;labelBackgroundColor=none;strokeColor=#6c8ebf;strokeWidth=0;spacing=0;spacingTop=8;spacingLeft=8;spacingRight=8;spacingBottom=6;shadow=0;rounded=1;gradientColor=#7ea6e0;fontColor=#000000;fontStyle=1;opacity=40;" parent="173" vertex="1">
          <mxGeometry width="40" height="28" as="geometry">
            <mxRectangle width="40" height="28" as="alternateBounds" />
          </mxGeometry>
        </mxCell>
        <mxCell id="175" value="updatedAt" style="shape=partialRectangle;html=1;whiteSpace=wrap;connectable=0;fillColor=#dae8fc;top=0;left=0;bottom=0;right=0;overflow=hidden;labelBackgroundColor=none;strokeColor=#6c8ebf;strokeWidth=0;spacing=0;spacingTop=8;spacingLeft=8;spacingRight=8;spacingBottom=6;align=left;shadow=0;rounded=1;gradientColor=#7ea6e0;fontColor=#000000;fontStyle=1;opacity=40;" parent="173" vertex="1">
          <mxGeometry x="40" width="114" height="28" as="geometry">
            <mxRectangle width="114" height="28" as="alternateBounds" />
          </mxGeometry>
        </mxCell>
        <mxCell id="176" value="DATETIME" style="shape=partialRectangle;html=1;whiteSpace=wrap;connectable=0;fillColor=#dae8fc;top=0;left=0;bottom=0;right=0;overflow=hidden;labelBackgroundColor=none;strokeColor=#6c8ebf;strokeWidth=0;spacing=0;spacingTop=8;spacingLeft=8;spacingRight=8;spacingBottom=6;align=left;shadow=0;rounded=1;gradientColor=#7ea6e0;fontColor=#000000;fontStyle=1;opacity=40;" parent="173" vertex="1">
          <mxGeometry x="154" width="98" height="28" as="geometry">
            <mxRectangle width="98" height="28" as="alternateBounds" />
          </mxGeometry>
        </mxCell>
        <mxCell id="XUXtn4tgAi1DHnVcITGY-224" value="Location" style="shape=table;startSize=30;container=1;collapsible=0;childLayout=tableLayout;fontStyle=5;align=left;labelBackgroundColor=none;spacing=6;swimlaneLine=1;fillColor=#ffcc99;strokeColor=#36393d;shadow=1;rounded=1;swimlaneFillColor=default;fontFamily=Helvetica;fontSize=14;opacity=40;gradientColor=default;fontColor=#000000;" parent="1" vertex="1">
          <mxGeometry x="527.0000000000001" y="655" width="264.96939086914085" height="285.25524684361073" as="geometry" />
        </mxCell>
        <mxCell id="XUXtn4tgAi1DHnVcITGY-225" value="" style="shape=tableRow;horizontal=0;startSize=0;swimlaneHead=0;swimlaneBody=0;top=0;left=0;bottom=0;right=0;collapsible=0;dropTarget=0;fillColor=#dae8fc;points=[[0,0.5],[1,0.5]];portConstraint=eastwest;labelBackgroundColor=none;swimlaneLine=0;strokeColor=#6c8ebf;shadow=0;rounded=1;gradientColor=#7ea6e0;fontColor=#000000;fontStyle=1;opacity=40;" parent="XUXtn4tgAi1DHnVcITGY-224" vertex="1">
          <mxGeometry y="30" width="264.96939086914085" height="28" as="geometry" />
        </mxCell>
        <mxCell id="XUXtn4tgAi1DHnVcITGY-226" value="PK" style="shape=partialRectangle;html=1;whiteSpace=wrap;connectable=0;fillColor=#dae8fc;top=0;left=0;bottom=0;right=0;overflow=hidden;labelBackgroundColor=none;strokeColor=#6c8ebf;strokeWidth=0;spacing=0;spacingTop=8;spacingLeft=8;spacingRight=8;spacingBottom=6;shadow=0;rounded=1;gradientColor=#7ea6e0;fontColor=#000000;fontStyle=1;opacity=40;" parent="XUXtn4tgAi1DHnVcITGY-225" vertex="1">
          <mxGeometry width="40" height="28" as="geometry">
            <mxRectangle width="40" height="28" as="alternateBounds" />
          </mxGeometry>
        </mxCell>
        <mxCell id="XUXtn4tgAi1DHnVcITGY-227" value="_id" style="shape=partialRectangle;html=1;whiteSpace=wrap;connectable=0;fillColor=#dae8fc;top=0;left=0;bottom=0;right=0;overflow=hidden;labelBackgroundColor=none;strokeColor=#6c8ebf;strokeWidth=0;align=left;spacing=0;spacingTop=8;spacingLeft=8;spacingRight=8;spacingBottom=6;shadow=0;rounded=1;gradientColor=#7ea6e0;fontColor=#000000;fontStyle=1;opacity=40;" parent="XUXtn4tgAi1DHnVcITGY-225" vertex="1">
          <mxGeometry x="40" width="110" height="28" as="geometry">
            <mxRectangle width="110" height="28" as="alternateBounds" />
          </mxGeometry>
        </mxCell>
        <mxCell id="XUXtn4tgAi1DHnVcITGY-228" value="BINARY(16)" style="shape=partialRectangle;html=1;whiteSpace=wrap;connectable=0;fillColor=#dae8fc;top=0;left=0;bottom=0;right=0;overflow=hidden;labelBackgroundColor=none;strokeColor=#6c8ebf;strokeWidth=0;align=left;spacing=0;spacingTop=8;spacingLeft=8;spacingRight=8;spacingBottom=6;shadow=0;rounded=1;gradientColor=#7ea6e0;fontColor=#000000;fontStyle=1;opacity=40;" parent="XUXtn4tgAi1DHnVcITGY-225" vertex="1">
          <mxGeometry x="150" width="115" height="28" as="geometry">
            <mxRectangle width="115" height="28" as="alternateBounds" />
          </mxGeometry>
        </mxCell>
        <mxCell id="XUXtn4tgAi1DHnVcITGY-233" style="shape=tableRow;horizontal=0;startSize=0;swimlaneHead=0;swimlaneBody=0;top=0;left=0;bottom=0;right=0;collapsible=0;dropTarget=0;fillColor=#dae8fc;points=[[0,0.5],[1,0.5]];portConstraint=eastwest;labelBackgroundColor=none;strokeColor=#6c8ebf;shadow=0;rounded=1;gradientColor=#7ea6e0;fontColor=#000000;fontStyle=1;opacity=40;" parent="XUXtn4tgAi1DHnVcITGY-224" vertex="1">
          <mxGeometry y="58" width="264.96939086914085" height="27" as="geometry" />
        </mxCell>
        <mxCell id="XUXtn4tgAi1DHnVcITGY-234" value="" style="shape=partialRectangle;html=1;whiteSpace=wrap;connectable=0;fillColor=#dae8fc;top=0;left=0;bottom=0;right=0;overflow=hidden;labelBackgroundColor=none;strokeColor=#6c8ebf;strokeWidth=0;spacing=0;spacingTop=8;spacingLeft=8;spacingRight=8;spacingBottom=6;shadow=0;rounded=1;gradientColor=#7ea6e0;fontColor=#000000;fontStyle=1;opacity=40;" parent="XUXtn4tgAi1DHnVcITGY-233" vertex="1">
          <mxGeometry width="40" height="27" as="geometry">
            <mxRectangle width="40" height="27" as="alternateBounds" />
          </mxGeometry>
        </mxCell>
        <mxCell id="XUXtn4tgAi1DHnVcITGY-235" value="name" style="shape=partialRectangle;html=1;whiteSpace=wrap;connectable=0;fillColor=#dae8fc;top=0;left=0;bottom=0;right=0;overflow=hidden;labelBackgroundColor=none;strokeColor=#6c8ebf;strokeWidth=0;spacing=0;spacingTop=8;spacingLeft=8;spacingRight=8;spacingBottom=6;align=left;shadow=0;rounded=1;gradientColor=#7ea6e0;fontColor=#000000;fontStyle=1;opacity=40;" parent="XUXtn4tgAi1DHnVcITGY-233" vertex="1">
          <mxGeometry x="40" width="110" height="27" as="geometry">
            <mxRectangle width="110" height="27" as="alternateBounds" />
          </mxGeometry>
        </mxCell>
        <mxCell id="XUXtn4tgAi1DHnVcITGY-236" value="VARCHAR" style="shape=partialRectangle;html=1;whiteSpace=wrap;connectable=0;fillColor=#dae8fc;top=0;left=0;bottom=0;right=0;overflow=hidden;labelBackgroundColor=none;strokeColor=#6c8ebf;strokeWidth=0;spacing=0;spacingTop=8;spacingLeft=8;spacingRight=8;spacingBottom=6;align=left;shadow=0;rounded=1;gradientColor=#7ea6e0;fontColor=#000000;fontStyle=1;opacity=40;" parent="XUXtn4tgAi1DHnVcITGY-233" vertex="1">
          <mxGeometry x="150" width="115" height="27" as="geometry">
            <mxRectangle width="115" height="27" as="alternateBounds" />
          </mxGeometry>
        </mxCell>
        <mxCell id="XUXtn4tgAi1DHnVcITGY-237" style="shape=tableRow;horizontal=0;startSize=0;swimlaneHead=0;swimlaneBody=0;top=0;left=0;bottom=0;right=0;collapsible=0;dropTarget=0;fillColor=#dae8fc;points=[[0,0.5],[1,0.5]];portConstraint=eastwest;labelBackgroundColor=none;strokeColor=#6c8ebf;shadow=0;rounded=1;gradientColor=#7ea6e0;fontColor=#000000;fontStyle=1;opacity=40;" parent="XUXtn4tgAi1DHnVcITGY-224" vertex="1">
          <mxGeometry y="85" width="264.96939086914085" height="28" as="geometry" />
        </mxCell>
        <mxCell id="XUXtn4tgAi1DHnVcITGY-238" style="shape=partialRectangle;html=1;whiteSpace=wrap;connectable=0;fillColor=#dae8fc;top=0;left=0;bottom=0;right=0;overflow=hidden;labelBackgroundColor=none;strokeColor=#6c8ebf;strokeWidth=0;spacing=0;spacingTop=8;spacingLeft=8;spacingRight=8;spacingBottom=6;shadow=0;rounded=1;gradientColor=#7ea6e0;fontColor=#000000;fontStyle=1;opacity=40;" parent="XUXtn4tgAi1DHnVcITGY-237" vertex="1">
          <mxGeometry width="40" height="28" as="geometry">
            <mxRectangle width="40" height="28" as="alternateBounds" />
          </mxGeometry>
        </mxCell>
        <mxCell id="XUXtn4tgAi1DHnVcITGY-239" value="address_street" style="shape=partialRectangle;html=1;whiteSpace=wrap;connectable=0;fillColor=#dae8fc;top=0;left=0;bottom=0;right=0;overflow=hidden;labelBackgroundColor=none;strokeColor=#6c8ebf;strokeWidth=0;spacing=0;spacingTop=8;spacingLeft=8;spacingRight=8;spacingBottom=6;align=left;shadow=0;rounded=1;gradientColor=#7ea6e0;fontColor=#000000;fontStyle=1;opacity=40;" parent="XUXtn4tgAi1DHnVcITGY-237" vertex="1">
          <mxGeometry x="40" width="110" height="28" as="geometry">
            <mxRectangle width="110" height="28" as="alternateBounds" />
          </mxGeometry>
        </mxCell>
        <mxCell id="XUXtn4tgAi1DHnVcITGY-240" value="VARCHAR" style="shape=partialRectangle;html=1;whiteSpace=wrap;connectable=0;fillColor=#dae8fc;top=0;left=0;bottom=0;right=0;overflow=hidden;labelBackgroundColor=none;strokeColor=#6c8ebf;strokeWidth=0;spacing=0;spacingTop=8;spacingLeft=8;spacingRight=8;spacingBottom=6;align=left;shadow=0;rounded=1;gradientColor=#7ea6e0;fontColor=#000000;fontStyle=1;opacity=40;" parent="XUXtn4tgAi1DHnVcITGY-237" vertex="1">
          <mxGeometry x="150" width="115" height="28" as="geometry">
            <mxRectangle width="115" height="28" as="alternateBounds" />
          </mxGeometry>
        </mxCell>
        <mxCell id="XUXtn4tgAi1DHnVcITGY-241" style="shape=tableRow;horizontal=0;startSize=0;swimlaneHead=0;swimlaneBody=0;top=0;left=0;bottom=0;right=0;collapsible=0;dropTarget=0;fillColor=#dae8fc;points=[[0,0.5],[1,0.5]];portConstraint=eastwest;labelBackgroundColor=none;strokeColor=#6c8ebf;shadow=0;rounded=1;gradientColor=#7ea6e0;fontColor=#000000;fontStyle=1;opacity=40;" parent="XUXtn4tgAi1DHnVcITGY-224" vertex="1">
          <mxGeometry y="113" width="264.96939086914085" height="28" as="geometry" />
        </mxCell>
        <mxCell id="XUXtn4tgAi1DHnVcITGY-242" style="shape=partialRectangle;html=1;whiteSpace=wrap;connectable=0;fillColor=#dae8fc;top=0;left=0;bottom=0;right=0;overflow=hidden;labelBackgroundColor=none;strokeColor=#6c8ebf;strokeWidth=0;spacing=0;spacingTop=8;spacingLeft=8;spacingRight=8;spacingBottom=6;shadow=0;rounded=1;gradientColor=#7ea6e0;fontColor=#000000;fontStyle=1;opacity=40;" parent="XUXtn4tgAi1DHnVcITGY-241" vertex="1">
          <mxGeometry width="40" height="28" as="geometry">
            <mxRectangle width="40" height="28" as="alternateBounds" />
          </mxGeometry>
        </mxCell>
        <mxCell id="XUXtn4tgAi1DHnVcITGY-243" value="address_city" style="shape=partialRectangle;html=1;whiteSpace=wrap;connectable=0;fillColor=#dae8fc;top=0;left=0;bottom=0;right=0;overflow=hidden;labelBackgroundColor=none;strokeColor=#6c8ebf;strokeWidth=0;spacing=0;spacingTop=8;spacingLeft=8;spacingRight=8;spacingBottom=6;align=left;shadow=0;rounded=1;gradientColor=#7ea6e0;fontColor=#000000;fontStyle=1;opacity=40;" parent="XUXtn4tgAi1DHnVcITGY-241" vertex="1">
          <mxGeometry x="40" width="110" height="28" as="geometry">
            <mxRectangle width="110" height="28" as="alternateBounds" />
          </mxGeometry>
        </mxCell>
        <mxCell id="XUXtn4tgAi1DHnVcITGY-244" value="VARCHAR" style="shape=partialRectangle;html=1;whiteSpace=wrap;connectable=0;fillColor=#dae8fc;top=0;left=0;bottom=0;right=0;overflow=hidden;labelBackgroundColor=none;strokeColor=#6c8ebf;strokeWidth=0;spacing=0;spacingTop=8;spacingLeft=8;spacingRight=8;spacingBottom=6;align=left;shadow=0;rounded=1;gradientColor=#7ea6e0;fontColor=#000000;fontStyle=1;opacity=40;" parent="XUXtn4tgAi1DHnVcITGY-241" vertex="1">
          <mxGeometry x="150" width="115" height="28" as="geometry">
            <mxRectangle width="115" height="28" as="alternateBounds" />
          </mxGeometry>
        </mxCell>
        <mxCell id="XUXtn4tgAi1DHnVcITGY-245" style="shape=tableRow;horizontal=0;startSize=0;swimlaneHead=0;swimlaneBody=0;top=0;left=0;bottom=0;right=0;collapsible=0;dropTarget=0;fillColor=#dae8fc;points=[[0,0.5],[1,0.5]];portConstraint=eastwest;labelBackgroundColor=none;strokeColor=#6c8ebf;shadow=0;rounded=1;gradientColor=#7ea6e0;fontColor=#000000;fontStyle=1;opacity=40;" parent="XUXtn4tgAi1DHnVcITGY-224" vertex="1">
          <mxGeometry y="141" width="264.96939086914085" height="27" as="geometry" />
        </mxCell>
        <mxCell id="XUXtn4tgAi1DHnVcITGY-246" style="shape=partialRectangle;html=1;whiteSpace=wrap;connectable=0;fillColor=#dae8fc;top=0;left=0;bottom=0;right=0;overflow=hidden;labelBackgroundColor=none;strokeColor=#6c8ebf;strokeWidth=0;spacing=0;spacingTop=8;spacingLeft=8;spacingRight=8;spacingBottom=6;shadow=0;rounded=1;gradientColor=#7ea6e0;fontColor=#000000;fontStyle=1;opacity=40;" parent="XUXtn4tgAi1DHnVcITGY-245" vertex="1">
          <mxGeometry width="40" height="27" as="geometry">
            <mxRectangle width="40" height="27" as="alternateBounds" />
          </mxGeometry>
        </mxCell>
        <mxCell id="XUXtn4tgAi1DHnVcITGY-247" value="address_state" style="shape=partialRectangle;html=1;whiteSpace=wrap;connectable=0;fillColor=#dae8fc;top=0;left=0;bottom=0;right=0;overflow=hidden;labelBackgroundColor=none;strokeColor=#6c8ebf;strokeWidth=0;spacing=0;spacingTop=8;spacingLeft=8;spacingRight=8;spacingBottom=6;align=left;shadow=0;rounded=1;gradientColor=#7ea6e0;fontColor=#000000;fontStyle=1;opacity=40;" parent="XUXtn4tgAi1DHnVcITGY-245" vertex="1">
          <mxGeometry x="40" width="110" height="27" as="geometry">
            <mxRectangle width="110" height="27" as="alternateBounds" />
          </mxGeometry>
        </mxCell>
        <mxCell id="XUXtn4tgAi1DHnVcITGY-248" value="VARCHAR" style="shape=partialRectangle;html=1;whiteSpace=wrap;connectable=0;fillColor=#dae8fc;top=0;left=0;bottom=0;right=0;overflow=hidden;labelBackgroundColor=none;strokeColor=#6c8ebf;strokeWidth=0;spacing=0;spacingTop=8;spacingLeft=8;spacingRight=8;spacingBottom=6;align=left;shadow=0;rounded=1;gradientColor=#7ea6e0;fontColor=#000000;fontStyle=1;opacity=40;" parent="XUXtn4tgAi1DHnVcITGY-245" vertex="1">
          <mxGeometry x="150" width="115" height="27" as="geometry">
            <mxRectangle width="115" height="27" as="alternateBounds" />
          </mxGeometry>
        </mxCell>
        <mxCell id="XUXtn4tgAi1DHnVcITGY-249" style="shape=tableRow;horizontal=0;startSize=0;swimlaneHead=0;swimlaneBody=0;top=0;left=0;bottom=0;right=0;collapsible=0;dropTarget=0;fillColor=#dae8fc;points=[[0,0.5],[1,0.5]];portConstraint=eastwest;labelBackgroundColor=none;strokeColor=#6c8ebf;shadow=0;rounded=1;gradientColor=#7ea6e0;fontColor=#000000;fontStyle=1;opacity=40;" parent="XUXtn4tgAi1DHnVcITGY-224" vertex="1">
          <mxGeometry y="168" width="264.96939086914085" height="28" as="geometry" />
        </mxCell>
        <mxCell id="XUXtn4tgAi1DHnVcITGY-250" style="shape=partialRectangle;html=1;whiteSpace=wrap;connectable=0;fillColor=#dae8fc;top=0;left=0;bottom=0;right=0;overflow=hidden;labelBackgroundColor=none;strokeColor=#6c8ebf;strokeWidth=0;spacing=0;spacingTop=8;spacingLeft=8;spacingRight=8;spacingBottom=6;shadow=0;rounded=1;gradientColor=#7ea6e0;fontColor=#000000;fontStyle=1;opacity=40;" parent="XUXtn4tgAi1DHnVcITGY-249" vertex="1">
          <mxGeometry width="40" height="28" as="geometry">
            <mxRectangle width="40" height="28" as="alternateBounds" />
          </mxGeometry>
        </mxCell>
        <mxCell id="XUXtn4tgAi1DHnVcITGY-251" value="address_zip" style="shape=partialRectangle;html=1;whiteSpace=wrap;connectable=0;fillColor=#dae8fc;top=0;left=0;bottom=0;right=0;overflow=hidden;labelBackgroundColor=none;strokeColor=#6c8ebf;strokeWidth=0;spacing=0;spacingTop=8;spacingLeft=8;spacingRight=8;spacingBottom=6;align=left;shadow=0;rounded=1;gradientColor=#7ea6e0;fontColor=#000000;fontStyle=1;opacity=40;" parent="XUXtn4tgAi1DHnVcITGY-249" vertex="1">
          <mxGeometry x="40" width="110" height="28" as="geometry">
            <mxRectangle width="110" height="28" as="alternateBounds" />
          </mxGeometry>
        </mxCell>
        <mxCell id="XUXtn4tgAi1DHnVcITGY-252" value="VARCHAR" style="shape=partialRectangle;html=1;whiteSpace=wrap;connectable=0;fillColor=#dae8fc;top=0;left=0;bottom=0;right=0;overflow=hidden;labelBackgroundColor=none;strokeColor=#6c8ebf;strokeWidth=0;spacing=0;spacingTop=8;spacingLeft=8;spacingRight=8;spacingBottom=6;align=left;shadow=0;rounded=1;gradientColor=#7ea6e0;fontColor=#000000;fontStyle=1;opacity=40;" parent="XUXtn4tgAi1DHnVcITGY-249" vertex="1">
          <mxGeometry x="150" width="115" height="28" as="geometry">
            <mxRectangle width="115" height="28" as="alternateBounds" />
          </mxGeometry>
        </mxCell>
        <mxCell id="XUXtn4tgAi1DHnVcITGY-253" style="shape=tableRow;horizontal=0;startSize=0;swimlaneHead=0;swimlaneBody=0;top=0;left=0;bottom=0;right=0;collapsible=0;dropTarget=0;fillColor=#dae8fc;points=[[0,0.5],[1,0.5]];portConstraint=eastwest;labelBackgroundColor=none;strokeColor=#6c8ebf;shadow=0;rounded=1;gradientColor=#7ea6e0;fontColor=#000000;fontStyle=1;opacity=40;" parent="XUXtn4tgAi1DHnVcITGY-224" vertex="1">
          <mxGeometry y="196" width="264.96939086914085" height="34" as="geometry" />
        </mxCell>
        <mxCell id="XUXtn4tgAi1DHnVcITGY-254" style="shape=partialRectangle;html=1;whiteSpace=wrap;connectable=0;fillColor=#dae8fc;top=0;left=0;bottom=0;right=0;overflow=hidden;labelBackgroundColor=none;strokeColor=#6c8ebf;strokeWidth=0;spacing=0;spacingTop=8;spacingLeft=8;spacingRight=8;spacingBottom=6;shadow=0;rounded=1;gradientColor=#7ea6e0;fontColor=#000000;fontStyle=1;opacity=40;" parent="XUXtn4tgAi1DHnVcITGY-253" vertex="1">
          <mxGeometry width="40" height="34" as="geometry">
            <mxRectangle width="40" height="34" as="alternateBounds" />
          </mxGeometry>
        </mxCell>
        <mxCell id="XUXtn4tgAi1DHnVcITGY-255" value="coordinates" style="shape=partialRectangle;html=1;whiteSpace=wrap;connectable=0;fillColor=#dae8fc;top=0;left=0;bottom=0;right=0;overflow=hidden;labelBackgroundColor=none;strokeColor=#6c8ebf;strokeWidth=0;spacing=0;spacingTop=8;spacingLeft=8;spacingRight=8;spacingBottom=6;align=left;shadow=0;rounded=1;gradientColor=#7ea6e0;fontColor=#000000;fontStyle=1;opacity=40;" parent="XUXtn4tgAi1DHnVcITGY-253" vertex="1">
          <mxGeometry x="40" width="110" height="34" as="geometry">
            <mxRectangle width="110" height="34" as="alternateBounds" />
          </mxGeometry>
        </mxCell>
        <mxCell id="XUXtn4tgAi1DHnVcITGY-256" value="VARCHAR" style="shape=partialRectangle;html=1;whiteSpace=wrap;connectable=0;fillColor=#dae8fc;top=0;left=0;bottom=0;right=0;overflow=hidden;labelBackgroundColor=none;strokeColor=#6c8ebf;strokeWidth=0;spacing=0;spacingTop=8;spacingLeft=8;spacingRight=8;spacingBottom=6;align=left;shadow=0;rounded=1;gradientColor=#7ea6e0;fontColor=#000000;fontStyle=1;opacity=40;" parent="XUXtn4tgAi1DHnVcITGY-253" vertex="1">
          <mxGeometry x="150" width="115" height="34" as="geometry">
            <mxRectangle width="115" height="34" as="alternateBounds" />
          </mxGeometry>
        </mxCell>
        <mxCell id="XUXtn4tgAi1DHnVcITGY-257" style="shape=tableRow;horizontal=0;startSize=0;swimlaneHead=0;swimlaneBody=0;top=0;left=0;bottom=0;right=0;collapsible=0;dropTarget=0;fillColor=#dae8fc;points=[[0,0.5],[1,0.5]];portConstraint=eastwest;labelBackgroundColor=none;strokeColor=#6c8ebf;shadow=0;rounded=1;gradientColor=#7ea6e0;fontColor=#000000;fontStyle=1;opacity=40;" parent="XUXtn4tgAi1DHnVcITGY-224" vertex="1">
          <mxGeometry y="230" width="264.96939086914085" height="27" as="geometry" />
        </mxCell>
        <mxCell id="XUXtn4tgAi1DHnVcITGY-258" style="shape=partialRectangle;html=1;whiteSpace=wrap;connectable=0;fillColor=#dae8fc;top=0;left=0;bottom=0;right=0;overflow=hidden;labelBackgroundColor=none;strokeColor=#6c8ebf;strokeWidth=0;spacing=0;spacingTop=8;spacingLeft=8;spacingRight=8;spacingBottom=6;shadow=0;rounded=1;gradientColor=#7ea6e0;fontColor=#000000;fontStyle=1;opacity=40;" parent="XUXtn4tgAi1DHnVcITGY-257" vertex="1">
          <mxGeometry width="40" height="27" as="geometry">
            <mxRectangle width="40" height="27" as="alternateBounds" />
          </mxGeometry>
        </mxCell>
        <mxCell id="XUXtn4tgAi1DHnVcITGY-259" value="createdAt" style="shape=partialRectangle;html=1;whiteSpace=wrap;connectable=0;fillColor=#dae8fc;top=0;left=0;bottom=0;right=0;overflow=hidden;labelBackgroundColor=none;strokeColor=#6c8ebf;strokeWidth=0;spacing=0;spacingTop=8;spacingLeft=8;spacingRight=8;spacingBottom=6;align=left;shadow=0;rounded=1;gradientColor=#7ea6e0;fontColor=#000000;fontStyle=1;opacity=40;" parent="XUXtn4tgAi1DHnVcITGY-257" vertex="1">
          <mxGeometry x="40" width="110" height="27" as="geometry">
            <mxRectangle width="110" height="27" as="alternateBounds" />
          </mxGeometry>
        </mxCell>
        <mxCell id="XUXtn4tgAi1DHnVcITGY-260" value="DATETIME" style="shape=partialRectangle;html=1;whiteSpace=wrap;connectable=0;fillColor=#dae8fc;top=0;left=0;bottom=0;right=0;overflow=hidden;labelBackgroundColor=none;strokeColor=#6c8ebf;strokeWidth=0;spacing=0;spacingTop=8;spacingLeft=8;spacingRight=8;spacingBottom=6;align=left;shadow=0;rounded=1;gradientColor=#7ea6e0;fontColor=#000000;fontStyle=1;opacity=40;" parent="XUXtn4tgAi1DHnVcITGY-257" vertex="1">
          <mxGeometry x="150" width="115" height="27" as="geometry">
            <mxRectangle width="115" height="27" as="alternateBounds" />
          </mxGeometry>
        </mxCell>
        <mxCell id="XUXtn4tgAi1DHnVcITGY-261" style="shape=tableRow;horizontal=0;startSize=0;swimlaneHead=0;swimlaneBody=0;top=0;left=0;bottom=0;right=0;collapsible=0;dropTarget=0;fillColor=#dae8fc;points=[[0,0.5],[1,0.5]];portConstraint=eastwest;labelBackgroundColor=none;strokeColor=#6c8ebf;shadow=0;rounded=1;gradientColor=#7ea6e0;fontColor=#000000;fontStyle=1;opacity=40;" parent="XUXtn4tgAi1DHnVcITGY-224" vertex="1">
          <mxGeometry y="257" width="264.96939086914085" height="28" as="geometry" />
        </mxCell>
        <mxCell id="XUXtn4tgAi1DHnVcITGY-262" style="shape=partialRectangle;html=1;whiteSpace=wrap;connectable=0;fillColor=#dae8fc;top=0;left=0;bottom=0;right=0;overflow=hidden;labelBackgroundColor=none;strokeColor=#6c8ebf;strokeWidth=0;spacing=0;spacingTop=8;spacingLeft=8;spacingRight=8;spacingBottom=6;shadow=0;rounded=1;gradientColor=#7ea6e0;fontColor=#000000;fontStyle=1;opacity=40;" parent="XUXtn4tgAi1DHnVcITGY-261" vertex="1">
          <mxGeometry width="40" height="28" as="geometry">
            <mxRectangle width="40" height="28" as="alternateBounds" />
          </mxGeometry>
        </mxCell>
        <mxCell id="XUXtn4tgAi1DHnVcITGY-263" value="updatedAt" style="shape=partialRectangle;html=1;whiteSpace=wrap;connectable=0;fillColor=#dae8fc;top=0;left=0;bottom=0;right=0;overflow=hidden;labelBackgroundColor=none;strokeColor=#6c8ebf;strokeWidth=0;spacing=0;spacingTop=8;spacingLeft=8;spacingRight=8;spacingBottom=6;align=left;shadow=0;rounded=1;gradientColor=#7ea6e0;fontColor=#000000;fontStyle=1;opacity=40;" parent="XUXtn4tgAi1DHnVcITGY-261" vertex="1">
          <mxGeometry x="40" width="110" height="28" as="geometry">
            <mxRectangle width="110" height="28" as="alternateBounds" />
          </mxGeometry>
        </mxCell>
        <mxCell id="XUXtn4tgAi1DHnVcITGY-264" value="DATETIME" style="shape=partialRectangle;html=1;whiteSpace=wrap;connectable=0;fillColor=#dae8fc;top=0;left=0;bottom=0;right=0;overflow=hidden;labelBackgroundColor=none;strokeColor=#6c8ebf;strokeWidth=0;spacing=0;spacingTop=8;spacingLeft=8;spacingRight=8;spacingBottom=6;align=left;shadow=0;rounded=1;gradientColor=#7ea6e0;fontColor=#000000;fontStyle=1;opacity=40;" parent="XUXtn4tgAi1DHnVcITGY-261" vertex="1">
          <mxGeometry x="150" width="115" height="28" as="geometry">
            <mxRectangle width="115" height="28" as="alternateBounds" />
          </mxGeometry>
        </mxCell>
        <mxCell id="20" value="User" style="shape=table;startSize=30;container=1;collapsible=0;childLayout=tableLayout;fontStyle=5;align=left;labelBackgroundColor=none;spacing=6;swimlaneLine=1;fillColor=#ffcc99;strokeColor=#36393d;shadow=1;rounded=1;swimlaneFillColor=default;fontFamily=Helvetica;fontSize=14;verticalAlign=middle;movable=1;resizable=1;rotatable=1;deletable=1;editable=1;locked=0;connectable=1;opacity=40;gradientDirection=south;gradientColor=default;fontColor=#000000;" parent="1" vertex="1">
          <mxGeometry x="527" y="260" width="264.3499755859375" height="376.5710761575144" as="geometry" />
        </mxCell>
        <mxCell id="21" value="" style="shape=tableRow;horizontal=0;startSize=0;swimlaneHead=0;swimlaneBody=0;top=0;left=0;bottom=0;right=0;collapsible=0;dropTarget=0;fillColor=#dae8fc;points=[[0,0.5],[1,0.5]];portConstraint=eastwest;labelBackgroundColor=none;swimlaneLine=0;strokeColor=#6c8ebf;shadow=0;rounded=1;verticalAlign=middle;gradientColor=#7ea6e0;fontColor=#000000;fontStyle=1;opacity=40;" parent="20" vertex="1">
          <mxGeometry y="30" width="264.3499755859375" height="28" as="geometry" />
        </mxCell>
        <mxCell id="22" value="PK" style="shape=partialRectangle;html=1;whiteSpace=wrap;connectable=0;fillColor=#dae8fc;top=0;left=0;bottom=0;right=0;overflow=hidden;labelBackgroundColor=none;strokeColor=#6c8ebf;strokeWidth=0;spacing=0;spacingTop=8;spacingLeft=8;spacingRight=8;spacingBottom=6;shadow=0;rounded=1;verticalAlign=middle;gradientColor=#7ea6e0;fontColor=#000000;fontStyle=1;opacity=40;" parent="21" vertex="1">
          <mxGeometry width="31" height="28" as="geometry">
            <mxRectangle width="31" height="28" as="alternateBounds" />
          </mxGeometry>
        </mxCell>
        <mxCell id="23" value="_id" style="shape=partialRectangle;html=1;whiteSpace=wrap;connectable=0;fillColor=#dae8fc;top=0;left=0;bottom=0;right=0;overflow=hidden;labelBackgroundColor=none;strokeColor=#6c8ebf;strokeWidth=0;align=left;spacing=0;spacingTop=8;spacingLeft=8;spacingRight=8;spacingBottom=6;shadow=0;rounded=1;verticalAlign=middle;gradientColor=#7ea6e0;fontColor=#000000;fontStyle=1;opacity=40;" parent="21" vertex="1">
          <mxGeometry x="31" width="137" height="28" as="geometry">
            <mxRectangle width="137" height="28" as="alternateBounds" />
          </mxGeometry>
        </mxCell>
        <mxCell id="24" value="BINARY(16)" style="shape=partialRectangle;html=1;whiteSpace=wrap;connectable=0;fillColor=#dae8fc;top=0;left=0;bottom=0;right=0;overflow=hidden;labelBackgroundColor=none;strokeColor=#6c8ebf;strokeWidth=0;align=left;spacing=0;spacingTop=8;spacingLeft=8;spacingRight=8;spacingBottom=6;shadow=0;rounded=1;verticalAlign=middle;gradientColor=#7ea6e0;fontColor=#000000;fontStyle=1;opacity=40;" parent="21" vertex="1">
          <mxGeometry x="168" width="96" height="28" as="geometry">
            <mxRectangle width="96" height="28" as="alternateBounds" />
          </mxGeometry>
        </mxCell>
        <mxCell id="33" style="shape=tableRow;horizontal=0;startSize=0;swimlaneHead=0;swimlaneBody=0;top=0;left=0;bottom=0;right=0;collapsible=0;dropTarget=0;fillColor=#dae8fc;points=[[0,0.5],[1,0.5]];portConstraint=eastwest;labelBackgroundColor=none;strokeColor=#6c8ebf;shadow=0;rounded=1;verticalAlign=middle;gradientColor=#7ea6e0;fontColor=#000000;fontStyle=1;opacity=40;" parent="20" vertex="1">
          <mxGeometry y="58" width="264.3499755859375" height="27" as="geometry" />
        </mxCell>
        <mxCell id="34" value="" style="shape=partialRectangle;html=1;whiteSpace=wrap;connectable=0;fillColor=#dae8fc;top=0;left=0;bottom=0;right=0;overflow=hidden;labelBackgroundColor=none;strokeColor=#6c8ebf;strokeWidth=0;spacing=0;spacingTop=8;spacingLeft=8;spacingRight=8;spacingBottom=6;shadow=0;rounded=1;verticalAlign=middle;gradientColor=#7ea6e0;fontColor=#000000;fontStyle=1;opacity=40;" parent="33" vertex="1">
          <mxGeometry width="31" height="27" as="geometry">
            <mxRectangle width="31" height="27" as="alternateBounds" />
          </mxGeometry>
        </mxCell>
        <mxCell id="35" value="user_name" style="shape=partialRectangle;html=1;whiteSpace=wrap;connectable=0;fillColor=#dae8fc;top=0;left=0;bottom=0;right=0;overflow=hidden;labelBackgroundColor=none;strokeColor=#6c8ebf;strokeWidth=0;spacing=0;spacingTop=8;spacingLeft=8;spacingRight=8;spacingBottom=6;align=left;shadow=0;rounded=1;verticalAlign=middle;gradientColor=#7ea6e0;fontColor=#000000;fontStyle=1;opacity=40;" parent="33" vertex="1">
          <mxGeometry x="31" width="137" height="27" as="geometry">
            <mxRectangle width="137" height="27" as="alternateBounds" />
          </mxGeometry>
        </mxCell>
        <mxCell id="36" value="VARCHAR" style="shape=partialRectangle;html=1;whiteSpace=wrap;connectable=0;fillColor=#dae8fc;top=0;left=0;bottom=0;right=0;overflow=hidden;labelBackgroundColor=none;strokeColor=#6c8ebf;strokeWidth=0;spacing=0;spacingTop=8;spacingLeft=8;spacingRight=8;spacingBottom=6;align=left;shadow=0;rounded=1;verticalAlign=middle;gradientColor=#7ea6e0;fontColor=#000000;fontStyle=1;opacity=40;" parent="33" vertex="1">
          <mxGeometry x="168" width="96" height="27" as="geometry">
            <mxRectangle width="96" height="27" as="alternateBounds" />
          </mxGeometry>
        </mxCell>
        <mxCell id="37" style="shape=tableRow;horizontal=0;startSize=0;swimlaneHead=0;swimlaneBody=0;top=0;left=0;bottom=0;right=0;collapsible=0;dropTarget=0;fillColor=#dae8fc;points=[[0,0.5],[1,0.5]];portConstraint=eastwest;labelBackgroundColor=none;strokeColor=#6c8ebf;shadow=0;rounded=1;verticalAlign=middle;gradientColor=#7ea6e0;fontColor=#000000;fontStyle=1;opacity=40;" parent="20" vertex="1">
          <mxGeometry y="85" width="264.3499755859375" height="28" as="geometry" />
        </mxCell>
        <mxCell id="38" style="shape=partialRectangle;html=1;whiteSpace=wrap;connectable=0;fillColor=#dae8fc;top=0;left=0;bottom=0;right=0;overflow=hidden;labelBackgroundColor=none;strokeColor=#6c8ebf;strokeWidth=0;spacing=0;spacingTop=8;spacingLeft=8;spacingRight=8;spacingBottom=6;shadow=0;rounded=1;verticalAlign=middle;gradientColor=#7ea6e0;fontColor=#000000;fontStyle=1;opacity=40;" parent="37" vertex="1">
          <mxGeometry width="31" height="28" as="geometry">
            <mxRectangle width="31" height="28" as="alternateBounds" />
          </mxGeometry>
        </mxCell>
        <mxCell id="39" value="email" style="shape=partialRectangle;html=1;whiteSpace=wrap;connectable=0;fillColor=#dae8fc;top=0;left=0;bottom=0;right=0;overflow=hidden;labelBackgroundColor=none;strokeColor=#6c8ebf;strokeWidth=0;spacing=0;spacingTop=8;spacingLeft=8;spacingRight=8;spacingBottom=6;align=left;shadow=0;rounded=1;verticalAlign=middle;gradientColor=#7ea6e0;fontColor=#000000;fontStyle=1;opacity=40;" parent="37" vertex="1">
          <mxGeometry x="31" width="137" height="28" as="geometry">
            <mxRectangle width="137" height="28" as="alternateBounds" />
          </mxGeometry>
        </mxCell>
        <mxCell id="40" value="VARCHAR" style="shape=partialRectangle;html=1;whiteSpace=wrap;connectable=0;fillColor=#dae8fc;top=0;left=0;bottom=0;right=0;overflow=hidden;labelBackgroundColor=none;strokeColor=#6c8ebf;strokeWidth=0;spacing=0;spacingTop=8;spacingLeft=8;spacingRight=8;spacingBottom=6;align=left;shadow=0;rounded=1;verticalAlign=middle;gradientColor=#7ea6e0;fontColor=#000000;fontStyle=1;opacity=40;" parent="37" vertex="1">
          <mxGeometry x="168" width="96" height="28" as="geometry">
            <mxRectangle width="96" height="28" as="alternateBounds" />
          </mxGeometry>
        </mxCell>
        <mxCell id="78" style="shape=tableRow;horizontal=0;startSize=0;swimlaneHead=0;swimlaneBody=0;top=0;left=0;bottom=0;right=0;collapsible=0;dropTarget=0;fillColor=#dae8fc;points=[[0,0.5],[1,0.5]];portConstraint=eastwest;labelBackgroundColor=none;strokeColor=#6c8ebf;shadow=0;rounded=1;verticalAlign=middle;gradientColor=#7ea6e0;fontColor=#000000;fontStyle=1;opacity=40;" parent="20" vertex="1">
          <mxGeometry y="113" width="264.3499755859375" height="28" as="geometry" />
        </mxCell>
        <mxCell id="79" style="shape=partialRectangle;html=1;whiteSpace=wrap;connectable=0;fillColor=#dae8fc;top=0;left=0;bottom=0;right=0;overflow=hidden;labelBackgroundColor=none;strokeColor=#6c8ebf;strokeWidth=0;spacing=0;spacingTop=8;spacingLeft=8;spacingRight=8;spacingBottom=6;shadow=0;rounded=1;verticalAlign=middle;gradientColor=#7ea6e0;fontColor=#000000;fontStyle=1;opacity=40;" parent="78" vertex="1">
          <mxGeometry width="31" height="28" as="geometry">
            <mxRectangle width="31" height="28" as="alternateBounds" />
          </mxGeometry>
        </mxCell>
        <mxCell id="80" value="password" style="shape=partialRectangle;html=1;whiteSpace=wrap;connectable=0;fillColor=#dae8fc;top=0;left=0;bottom=0;right=0;overflow=hidden;labelBackgroundColor=none;strokeColor=#6c8ebf;strokeWidth=0;spacing=0;spacingTop=8;spacingLeft=8;spacingRight=8;spacingBottom=6;align=left;shadow=0;rounded=1;verticalAlign=middle;gradientColor=#7ea6e0;fontColor=#000000;fontStyle=1;opacity=40;" parent="78" vertex="1">
          <mxGeometry x="31" width="137" height="28" as="geometry">
            <mxRectangle width="137" height="28" as="alternateBounds" />
          </mxGeometry>
        </mxCell>
        <mxCell id="81" value="VARCHAR" style="shape=partialRectangle;html=1;whiteSpace=wrap;connectable=0;fillColor=#dae8fc;top=0;left=0;bottom=0;right=0;overflow=hidden;labelBackgroundColor=none;strokeColor=#6c8ebf;strokeWidth=0;spacing=0;spacingTop=8;spacingLeft=8;spacingRight=8;spacingBottom=6;align=left;shadow=0;rounded=1;verticalAlign=middle;gradientColor=#7ea6e0;fontColor=#000000;fontStyle=1;opacity=40;" parent="78" vertex="1">
          <mxGeometry x="168" width="96" height="28" as="geometry">
            <mxRectangle width="96" height="28" as="alternateBounds" />
          </mxGeometry>
        </mxCell>
        <mxCell id="XUXtn4tgAi1DHnVcITGY-220" style="shape=tableRow;horizontal=0;startSize=0;swimlaneHead=0;swimlaneBody=0;top=0;left=0;bottom=0;right=0;collapsible=0;dropTarget=0;fillColor=#dae8fc;points=[[0,0.5],[1,0.5]];portConstraint=eastwest;labelBackgroundColor=none;strokeColor=#6c8ebf;shadow=0;rounded=1;verticalAlign=middle;gradientColor=#7ea6e0;fontColor=#000000;fontStyle=1;opacity=40;" parent="20" vertex="1">
          <mxGeometry y="141" width="264.3499755859375" height="29" as="geometry" />
        </mxCell>
        <mxCell id="XUXtn4tgAi1DHnVcITGY-221" style="shape=partialRectangle;html=1;whiteSpace=wrap;connectable=0;fillColor=#dae8fc;top=0;left=0;bottom=0;right=0;overflow=hidden;labelBackgroundColor=none;strokeColor=#6c8ebf;strokeWidth=0;spacing=0;spacingTop=8;spacingLeft=8;spacingRight=8;spacingBottom=6;shadow=0;rounded=1;verticalAlign=middle;gradientColor=#7ea6e0;fontColor=#000000;fontStyle=1;opacity=40;" parent="XUXtn4tgAi1DHnVcITGY-220" vertex="1">
          <mxGeometry width="31" height="29" as="geometry">
            <mxRectangle width="31" height="29" as="alternateBounds" />
          </mxGeometry>
        </mxCell>
        <mxCell id="XUXtn4tgAi1DHnVcITGY-222" value="image&lt;span style=&quot;white-space: pre;&quot;&gt;&#x9;&lt;/span&gt;&lt;span style=&quot;white-space: pre;&quot;&gt;&#x9;&lt;/span&gt;" style="shape=partialRectangle;html=1;whiteSpace=wrap;connectable=0;fillColor=#dae8fc;top=0;left=0;bottom=0;right=0;overflow=hidden;labelBackgroundColor=none;strokeColor=#6c8ebf;strokeWidth=0;spacing=0;spacingTop=8;spacingLeft=8;spacingRight=8;spacingBottom=6;align=left;shadow=0;rounded=1;verticalAlign=middle;gradientColor=#7ea6e0;fontColor=#000000;fontStyle=1;opacity=40;" parent="XUXtn4tgAi1DHnVcITGY-220" vertex="1">
          <mxGeometry x="31" width="137" height="29" as="geometry">
            <mxRectangle width="137" height="29" as="alternateBounds" />
          </mxGeometry>
        </mxCell>
        <mxCell id="XUXtn4tgAi1DHnVcITGY-223" value="VARCHAR" style="shape=partialRectangle;html=1;whiteSpace=wrap;connectable=0;fillColor=#dae8fc;top=0;left=0;bottom=0;right=0;overflow=hidden;labelBackgroundColor=none;strokeColor=#6c8ebf;strokeWidth=0;spacing=0;spacingTop=8;spacingLeft=8;spacingRight=8;spacingBottom=6;align=left;shadow=0;rounded=1;verticalAlign=middle;gradientColor=#7ea6e0;fontColor=#000000;fontStyle=1;opacity=40;" parent="XUXtn4tgAi1DHnVcITGY-220" vertex="1">
          <mxGeometry x="168" width="96" height="29" as="geometry">
            <mxRectangle width="96" height="29" as="alternateBounds" />
          </mxGeometry>
        </mxCell>
        <mxCell id="XUXtn4tgAi1DHnVcITGY-216" style="shape=tableRow;horizontal=0;startSize=0;swimlaneHead=0;swimlaneBody=0;top=0;left=0;bottom=0;right=0;collapsible=0;dropTarget=0;fillColor=#dae8fc;points=[[0,0.5],[1,0.5]];portConstraint=eastwest;labelBackgroundColor=none;strokeColor=#6c8ebf;shadow=0;rounded=1;verticalAlign=middle;gradientColor=#7ea6e0;fontColor=#000000;fontStyle=1;opacity=40;" parent="20" vertex="1">
          <mxGeometry y="170" width="264.3499755859375" height="28" as="geometry" />
        </mxCell>
        <mxCell id="XUXtn4tgAi1DHnVcITGY-217" style="shape=partialRectangle;html=1;whiteSpace=wrap;connectable=0;fillColor=#dae8fc;top=0;left=0;bottom=0;right=0;overflow=hidden;labelBackgroundColor=none;strokeColor=#6c8ebf;strokeWidth=0;spacing=0;spacingTop=8;spacingLeft=8;spacingRight=8;spacingBottom=6;shadow=0;rounded=1;verticalAlign=middle;gradientColor=#7ea6e0;fontColor=#000000;fontStyle=1;opacity=40;" parent="XUXtn4tgAi1DHnVcITGY-216" vertex="1">
          <mxGeometry width="31" height="28" as="geometry">
            <mxRectangle width="31" height="28" as="alternateBounds" />
          </mxGeometry>
        </mxCell>
        <mxCell id="XUXtn4tgAi1DHnVcITGY-218" value="bio&lt;span style=&quot;white-space: pre;&quot;&gt;&#x9;&lt;/span&gt;" style="shape=partialRectangle;html=1;whiteSpace=wrap;connectable=0;fillColor=#dae8fc;top=0;left=0;bottom=0;right=0;overflow=hidden;labelBackgroundColor=none;strokeColor=#6c8ebf;strokeWidth=0;spacing=0;spacingTop=8;spacingLeft=8;spacingRight=8;spacingBottom=6;align=left;shadow=0;rounded=1;verticalAlign=middle;gradientColor=#7ea6e0;fontColor=#000000;fontStyle=1;opacity=40;" parent="XUXtn4tgAi1DHnVcITGY-216" vertex="1">
          <mxGeometry x="31" width="137" height="28" as="geometry">
            <mxRectangle width="137" height="28" as="alternateBounds" />
          </mxGeometry>
        </mxCell>
        <mxCell id="XUXtn4tgAi1DHnVcITGY-219" value="LONGTEXT" style="shape=partialRectangle;html=1;whiteSpace=wrap;connectable=0;fillColor=#dae8fc;top=0;left=0;bottom=0;right=0;overflow=hidden;labelBackgroundColor=none;strokeColor=#6c8ebf;strokeWidth=0;spacing=0;spacingTop=8;spacingLeft=8;spacingRight=8;spacingBottom=6;align=left;shadow=0;rounded=1;verticalAlign=middle;gradientColor=#7ea6e0;fontColor=#000000;fontStyle=1;opacity=40;" parent="XUXtn4tgAi1DHnVcITGY-216" vertex="1">
          <mxGeometry x="168" width="96" height="28" as="geometry">
            <mxRectangle width="96" height="28" as="alternateBounds" />
          </mxGeometry>
        </mxCell>
        <mxCell id="XUXtn4tgAi1DHnVcITGY-269" style="shape=tableRow;horizontal=0;startSize=0;swimlaneHead=0;swimlaneBody=0;top=0;left=0;bottom=0;right=0;collapsible=0;dropTarget=0;fillColor=#dae8fc;points=[[0,0.5],[1,0.5]];portConstraint=eastwest;labelBackgroundColor=none;strokeColor=#6c8ebf;shadow=0;rounded=1;verticalAlign=middle;gradientColor=#7ea6e0;fontColor=#000000;fontStyle=1;opacity=40;" parent="20" vertex="1">
          <mxGeometry y="198" width="264.3499755859375" height="27" as="geometry" />
        </mxCell>
        <mxCell id="XUXtn4tgAi1DHnVcITGY-270" style="shape=partialRectangle;html=1;whiteSpace=wrap;connectable=0;fillColor=#dae8fc;top=0;left=0;bottom=0;right=0;overflow=hidden;labelBackgroundColor=none;strokeColor=#6c8ebf;strokeWidth=0;spacing=0;spacingTop=8;spacingLeft=8;spacingRight=8;spacingBottom=6;shadow=0;rounded=1;verticalAlign=middle;gradientColor=#7ea6e0;fontColor=#000000;fontStyle=1;opacity=40;" parent="XUXtn4tgAi1DHnVcITGY-269" vertex="1">
          <mxGeometry width="31" height="27" as="geometry">
            <mxRectangle width="31" height="27" as="alternateBounds" />
          </mxGeometry>
        </mxCell>
        <mxCell id="XUXtn4tgAi1DHnVcITGY-271" value="defaultLocationId" style="shape=partialRectangle;html=1;whiteSpace=wrap;connectable=0;fillColor=#dae8fc;top=0;left=0;bottom=0;right=0;overflow=hidden;labelBackgroundColor=none;strokeColor=#6c8ebf;strokeWidth=0;spacing=0;spacingTop=8;spacingLeft=8;spacingRight=8;spacingBottom=6;align=left;shadow=0;rounded=1;verticalAlign=middle;gradientColor=#7ea6e0;fontColor=#000000;fontStyle=1;opacity=40;" parent="XUXtn4tgAi1DHnVcITGY-269" vertex="1">
          <mxGeometry x="31" width="137" height="27" as="geometry">
            <mxRectangle width="137" height="27" as="alternateBounds" />
          </mxGeometry>
        </mxCell>
        <mxCell id="XUXtn4tgAi1DHnVcITGY-272" value="BINARY(16)" style="shape=partialRectangle;html=1;whiteSpace=wrap;connectable=0;fillColor=#dae8fc;top=0;left=0;bottom=0;right=0;overflow=hidden;labelBackgroundColor=none;strokeColor=#6c8ebf;strokeWidth=0;spacing=0;spacingTop=8;spacingLeft=8;spacingRight=8;spacingBottom=6;align=left;shadow=0;rounded=1;verticalAlign=middle;gradientColor=#7ea6e0;fontColor=#000000;fontStyle=1;opacity=40;" parent="XUXtn4tgAi1DHnVcITGY-269" vertex="1">
          <mxGeometry x="168" width="96" height="27" as="geometry">
            <mxRectangle width="96" height="27" as="alternateBounds" />
          </mxGeometry>
        </mxCell>
        <mxCell id="XUXtn4tgAi1DHnVcITGY-273" style="shape=tableRow;horizontal=0;startSize=0;swimlaneHead=0;swimlaneBody=0;top=0;left=0;bottom=0;right=0;collapsible=0;dropTarget=0;fillColor=#dae8fc;points=[[0,0.5],[1,0.5]];portConstraint=eastwest;labelBackgroundColor=none;strokeColor=#6c8ebf;shadow=0;rounded=1;verticalAlign=middle;gradientColor=#7ea6e0;fontColor=#000000;fontStyle=1;opacity=40;" parent="20" vertex="1">
          <mxGeometry y="225" width="264.3499755859375" height="31" as="geometry" />
        </mxCell>
        <mxCell id="XUXtn4tgAi1DHnVcITGY-274" style="shape=partialRectangle;html=1;whiteSpace=wrap;connectable=0;fillColor=#dae8fc;top=0;left=0;bottom=0;right=0;overflow=hidden;labelBackgroundColor=none;strokeColor=#6c8ebf;strokeWidth=0;spacing=0;spacingTop=8;spacingLeft=8;spacingRight=8;spacingBottom=6;shadow=0;rounded=1;verticalAlign=middle;gradientColor=#7ea6e0;fontColor=#000000;fontStyle=1;opacity=40;" parent="XUXtn4tgAi1DHnVcITGY-273" vertex="1">
          <mxGeometry width="31" height="31" as="geometry">
            <mxRectangle width="31" height="31" as="alternateBounds" />
          </mxGeometry>
        </mxCell>
        <mxCell id="XUXtn4tgAi1DHnVcITGY-275" value="friendListId" style="shape=partialRectangle;html=1;whiteSpace=wrap;connectable=0;fillColor=#dae8fc;top=0;left=0;bottom=0;right=0;overflow=hidden;labelBackgroundColor=none;strokeColor=#6c8ebf;strokeWidth=0;spacing=0;spacingTop=8;spacingLeft=8;spacingRight=8;spacingBottom=6;align=left;shadow=0;rounded=1;verticalAlign=middle;gradientColor=#7ea6e0;fontColor=#000000;fontStyle=1;opacity=40;" parent="XUXtn4tgAi1DHnVcITGY-273" vertex="1">
          <mxGeometry x="31" width="137" height="31" as="geometry">
            <mxRectangle width="137" height="31" as="alternateBounds" />
          </mxGeometry>
        </mxCell>
        <mxCell id="XUXtn4tgAi1DHnVcITGY-276" value="BINARY (16)" style="shape=partialRectangle;html=1;whiteSpace=wrap;connectable=0;fillColor=#dae8fc;top=0;left=0;bottom=0;right=0;overflow=hidden;labelBackgroundColor=none;strokeColor=#6c8ebf;strokeWidth=0;spacing=0;spacingTop=8;spacingLeft=8;spacingRight=8;spacingBottom=6;align=left;shadow=0;rounded=1;verticalAlign=middle;gradientColor=#7ea6e0;fontColor=#000000;fontStyle=1;opacity=40;" parent="XUXtn4tgAi1DHnVcITGY-273" vertex="1">
          <mxGeometry x="168" width="96" height="31" as="geometry">
            <mxRectangle width="96" height="31" as="alternateBounds" />
          </mxGeometry>
        </mxCell>
        <mxCell id="hIdABgxjADvX2J09Uw0K-250" style="shape=tableRow;horizontal=0;startSize=0;swimlaneHead=0;swimlaneBody=0;top=0;left=0;bottom=0;right=0;collapsible=0;dropTarget=0;fillColor=#dae8fc;points=[[0,0.5],[1,0.5]];portConstraint=eastwest;labelBackgroundColor=none;strokeColor=#6c8ebf;shadow=0;rounded=1;verticalAlign=middle;gradientColor=#7ea6e0;fontColor=#000000;fontStyle=1;opacity=40;" parent="20" vertex="1">
          <mxGeometry y="256" width="264.3499755859375" height="31" as="geometry" />
        </mxCell>
        <mxCell id="hIdABgxjADvX2J09Uw0K-251" style="shape=partialRectangle;html=1;whiteSpace=wrap;connectable=0;fillColor=#dae8fc;top=0;left=0;bottom=0;right=0;overflow=hidden;labelBackgroundColor=none;strokeColor=#6c8ebf;strokeWidth=0;spacing=0;spacingTop=8;spacingLeft=8;spacingRight=8;spacingBottom=6;shadow=0;rounded=1;verticalAlign=middle;gradientColor=#7ea6e0;fontColor=#000000;fontStyle=1;opacity=40;" parent="hIdABgxjADvX2J09Uw0K-250" vertex="1">
          <mxGeometry width="31" height="31" as="geometry">
            <mxRectangle width="31" height="31" as="alternateBounds" />
          </mxGeometry>
        </mxCell>
        <mxCell id="hIdABgxjADvX2J09Uw0K-252" value="frinedRequestsId&lt;span style=&quot;white-space: pre;&quot;&gt;&#x9;&lt;/span&gt;" style="shape=partialRectangle;html=1;whiteSpace=wrap;connectable=0;fillColor=#dae8fc;top=0;left=0;bottom=0;right=0;overflow=hidden;labelBackgroundColor=none;strokeColor=#6c8ebf;strokeWidth=0;spacing=0;spacingTop=8;spacingLeft=8;spacingRight=8;spacingBottom=6;align=left;shadow=0;rounded=1;verticalAlign=middle;gradientColor=#7ea6e0;fontColor=#000000;fontStyle=1;opacity=40;" parent="hIdABgxjADvX2J09Uw0K-250" vertex="1">
          <mxGeometry x="31" width="137" height="31" as="geometry">
            <mxRectangle width="137" height="31" as="alternateBounds" />
          </mxGeometry>
        </mxCell>
        <mxCell id="hIdABgxjADvX2J09Uw0K-253" value="BINARY(16)" style="shape=partialRectangle;html=1;whiteSpace=wrap;connectable=0;fillColor=#dae8fc;top=0;left=0;bottom=0;right=0;overflow=hidden;labelBackgroundColor=none;strokeColor=#6c8ebf;strokeWidth=0;spacing=0;spacingTop=8;spacingLeft=8;spacingRight=8;spacingBottom=6;align=left;shadow=0;rounded=1;verticalAlign=middle;gradientColor=#7ea6e0;fontColor=#000000;fontStyle=1;opacity=40;" parent="hIdABgxjADvX2J09Uw0K-250" vertex="1">
          <mxGeometry x="168" width="96" height="31" as="geometry">
            <mxRectangle width="96" height="31" as="alternateBounds" />
          </mxGeometry>
        </mxCell>
        <mxCell id="hIdABgxjADvX2J09Uw0K-297" style="shape=tableRow;horizontal=0;startSize=0;swimlaneHead=0;swimlaneBody=0;top=0;left=0;bottom=0;right=0;collapsible=0;dropTarget=0;fillColor=#dae8fc;points=[[0,0.5],[1,0.5]];portConstraint=eastwest;labelBackgroundColor=none;strokeColor=#6c8ebf;shadow=0;rounded=1;verticalAlign=middle;gradientColor=#7ea6e0;fontColor=#000000;fontStyle=1;opacity=40;" parent="20" vertex="1">
          <mxGeometry y="287" width="264.3499755859375" height="33" as="geometry" />
        </mxCell>
        <mxCell id="hIdABgxjADvX2J09Uw0K-298" style="shape=partialRectangle;html=1;whiteSpace=wrap;connectable=0;fillColor=#dae8fc;top=0;left=0;bottom=0;right=0;overflow=hidden;labelBackgroundColor=none;strokeColor=#6c8ebf;strokeWidth=0;spacing=0;spacingTop=8;spacingLeft=8;spacingRight=8;spacingBottom=6;shadow=0;rounded=1;verticalAlign=middle;gradientColor=#7ea6e0;fontColor=#000000;fontStyle=1;opacity=40;" parent="hIdABgxjADvX2J09Uw0K-297" vertex="1">
          <mxGeometry width="31" height="33" as="geometry">
            <mxRectangle width="31" height="33" as="alternateBounds" />
          </mxGeometry>
        </mxCell>
        <mxCell id="hIdABgxjADvX2J09Uw0K-299" value="notifications" style="shape=partialRectangle;html=1;whiteSpace=wrap;connectable=0;fillColor=#dae8fc;top=0;left=0;bottom=0;right=0;overflow=hidden;labelBackgroundColor=none;strokeColor=#6c8ebf;strokeWidth=0;spacing=0;spacingTop=8;spacingLeft=8;spacingRight=8;spacingBottom=6;align=left;shadow=0;rounded=1;verticalAlign=middle;gradientColor=#7ea6e0;fontColor=#000000;fontStyle=1;opacity=40;" parent="hIdABgxjADvX2J09Uw0K-297" vertex="1">
          <mxGeometry x="31" width="137" height="33" as="geometry">
            <mxRectangle width="137" height="33" as="alternateBounds" />
          </mxGeometry>
        </mxCell>
        <mxCell id="hIdABgxjADvX2J09Uw0K-300" value="BINARY(16)" style="shape=partialRectangle;html=1;whiteSpace=wrap;connectable=0;fillColor=#dae8fc;top=0;left=0;bottom=0;right=0;overflow=hidden;labelBackgroundColor=none;strokeColor=#6c8ebf;strokeWidth=0;spacing=0;spacingTop=8;spacingLeft=8;spacingRight=8;spacingBottom=6;align=left;shadow=0;rounded=1;verticalAlign=middle;gradientColor=#7ea6e0;fontColor=#000000;fontStyle=1;opacity=40;" parent="hIdABgxjADvX2J09Uw0K-297" vertex="1">
          <mxGeometry x="168" width="96" height="33" as="geometry">
            <mxRectangle width="96" height="33" as="alternateBounds" />
          </mxGeometry>
        </mxCell>
        <mxCell id="41" style="shape=tableRow;horizontal=0;startSize=0;swimlaneHead=0;swimlaneBody=0;top=0;left=0;bottom=0;right=0;collapsible=0;dropTarget=0;fillColor=#dae8fc;points=[[0,0.5],[1,0.5]];portConstraint=eastwest;labelBackgroundColor=none;strokeColor=#6c8ebf;shadow=0;rounded=1;verticalAlign=middle;gradientColor=#7ea6e0;fontColor=#000000;fontStyle=1;opacity=40;" parent="20" vertex="1">
          <mxGeometry y="320" width="264.3499755859375" height="28" as="geometry" />
        </mxCell>
        <mxCell id="42" style="shape=partialRectangle;html=1;whiteSpace=wrap;connectable=0;fillColor=#dae8fc;top=0;left=0;bottom=0;right=0;overflow=hidden;labelBackgroundColor=none;strokeColor=#6c8ebf;strokeWidth=0;spacing=0;spacingTop=8;spacingLeft=8;spacingRight=8;spacingBottom=6;shadow=0;rounded=1;verticalAlign=middle;gradientColor=#7ea6e0;fontColor=#000000;fontStyle=1;opacity=40;" parent="41" vertex="1">
          <mxGeometry width="31" height="28" as="geometry">
            <mxRectangle width="31" height="28" as="alternateBounds" />
          </mxGeometry>
        </mxCell>
        <mxCell id="43" value="createdAt" style="shape=partialRectangle;html=1;whiteSpace=wrap;connectable=0;fillColor=#dae8fc;top=0;left=0;bottom=0;right=0;overflow=hidden;labelBackgroundColor=none;strokeColor=#6c8ebf;strokeWidth=0;spacing=0;spacingTop=8;spacingLeft=8;spacingRight=8;spacingBottom=6;align=left;shadow=0;rounded=1;verticalAlign=middle;gradientColor=#7ea6e0;fontColor=#000000;fontStyle=1;opacity=40;" parent="41" vertex="1">
          <mxGeometry x="31" width="137" height="28" as="geometry">
            <mxRectangle width="137" height="28" as="alternateBounds" />
          </mxGeometry>
        </mxCell>
        <mxCell id="44" value="DATETIME" style="shape=partialRectangle;html=1;whiteSpace=wrap;connectable=0;fillColor=#dae8fc;top=0;left=0;bottom=0;right=0;overflow=hidden;labelBackgroundColor=none;strokeColor=#6c8ebf;strokeWidth=0;spacing=0;spacingTop=8;spacingLeft=8;spacingRight=8;spacingBottom=6;align=left;shadow=0;rounded=1;verticalAlign=middle;gradientColor=#7ea6e0;fontColor=#000000;fontStyle=1;opacity=40;" parent="41" vertex="1">
          <mxGeometry x="168" width="96" height="28" as="geometry">
            <mxRectangle width="96" height="28" as="alternateBounds" />
          </mxGeometry>
        </mxCell>
        <mxCell id="45" style="shape=tableRow;horizontal=0;startSize=0;swimlaneHead=0;swimlaneBody=0;top=0;left=0;bottom=0;right=0;collapsible=0;dropTarget=0;fillColor=#dae8fc;points=[[0,0.5],[1,0.5]];portConstraint=eastwest;labelBackgroundColor=none;strokeColor=#6c8ebf;shadow=0;rounded=1;verticalAlign=middle;gradientColor=#7ea6e0;fontColor=#000000;fontStyle=1;opacity=40;" parent="20" vertex="1">
          <mxGeometry y="348" width="264.3499755859375" height="29" as="geometry" />
        </mxCell>
        <mxCell id="46" style="shape=partialRectangle;html=1;whiteSpace=wrap;connectable=0;fillColor=#dae8fc;top=0;left=0;bottom=0;right=0;overflow=hidden;labelBackgroundColor=none;strokeColor=#6c8ebf;strokeWidth=0;spacing=0;spacingTop=8;spacingLeft=8;spacingRight=8;spacingBottom=6;shadow=0;rounded=1;verticalAlign=middle;gradientColor=#7ea6e0;fontColor=#000000;fontStyle=1;opacity=40;" parent="45" vertex="1">
          <mxGeometry width="31" height="29" as="geometry">
            <mxRectangle width="31" height="29" as="alternateBounds" />
          </mxGeometry>
        </mxCell>
        <mxCell id="47" value="updatedAt" style="shape=partialRectangle;html=1;whiteSpace=wrap;connectable=0;fillColor=#dae8fc;top=0;left=0;bottom=0;right=0;overflow=hidden;labelBackgroundColor=none;strokeColor=#6c8ebf;strokeWidth=0;spacing=0;spacingTop=8;spacingLeft=8;spacingRight=8;spacingBottom=6;align=left;shadow=0;rounded=1;verticalAlign=middle;gradientColor=#7ea6e0;fontColor=#000000;fontStyle=1;opacity=40;" parent="45" vertex="1">
          <mxGeometry x="31" width="137" height="29" as="geometry">
            <mxRectangle width="137" height="29" as="alternateBounds" />
          </mxGeometry>
        </mxCell>
        <mxCell id="48" value="DATETIME" style="shape=partialRectangle;html=1;whiteSpace=wrap;connectable=0;fillColor=#dae8fc;top=0;left=0;bottom=0;right=0;overflow=hidden;labelBackgroundColor=none;strokeColor=#6c8ebf;strokeWidth=0;spacing=0;spacingTop=8;spacingLeft=8;spacingRight=8;spacingBottom=6;align=left;shadow=0;rounded=1;verticalAlign=middle;gradientColor=#7ea6e0;fontColor=#000000;fontStyle=1;opacity=40;" parent="45" vertex="1">
          <mxGeometry x="168" width="96" height="29" as="geometry">
            <mxRectangle width="96" height="29" as="alternateBounds" />
          </mxGeometry>
        </mxCell>
        <mxCell id="b77LTyn4byEdy7xEsxy5-222" value="Friend Requests " style="shape=table;startSize=30;container=1;collapsible=0;childLayout=tableLayout;fontStyle=5;align=left;labelBackgroundColor=none;spacing=6;swimlaneLine=1;fillColor=#ffcc99;strokeColor=#36393d;shadow=1;rounded=1;swimlaneFillColor=default;fontFamily=Helvetica;fontSize=14;opacity=40;gradientColor=default;fontColor=#000000;" parent="1" vertex="1">
          <mxGeometry x="83" y="404" width="333.99" height="228" as="geometry" />
        </mxCell>
        <mxCell id="b77LTyn4byEdy7xEsxy5-223" value="" style="shape=tableRow;horizontal=0;startSize=0;swimlaneHead=0;swimlaneBody=0;top=0;left=0;bottom=0;right=0;collapsible=0;dropTarget=0;fillColor=#dae8fc;points=[[0,0.5],[1,0.5]];portConstraint=eastwest;labelBackgroundColor=none;swimlaneLine=0;strokeColor=#6c8ebf;shadow=0;rounded=1;gradientColor=#7ea6e0;fontColor=#000000;fontStyle=1;opacity=40;" parent="b77LTyn4byEdy7xEsxy5-222" vertex="1">
          <mxGeometry y="30" width="333.99" height="29" as="geometry" />
        </mxCell>
        <mxCell id="b77LTyn4byEdy7xEsxy5-224" value="PK" style="shape=partialRectangle;html=1;whiteSpace=wrap;connectable=0;fillColor=#dae8fc;top=0;left=0;bottom=0;right=0;overflow=hidden;labelBackgroundColor=none;strokeColor=#6c8ebf;strokeWidth=0;spacing=0;spacingTop=8;spacingLeft=8;spacingRight=8;spacingBottom=6;shadow=0;rounded=1;gradientColor=#7ea6e0;fontColor=#000000;fontStyle=1;opacity=40;" parent="b77LTyn4byEdy7xEsxy5-223" vertex="1">
          <mxGeometry width="54" height="29" as="geometry">
            <mxRectangle width="54" height="29" as="alternateBounds" />
          </mxGeometry>
        </mxCell>
        <mxCell id="b77LTyn4byEdy7xEsxy5-225" value="_id" style="shape=partialRectangle;html=1;whiteSpace=wrap;connectable=0;fillColor=#dae8fc;top=0;left=0;bottom=0;right=0;overflow=hidden;labelBackgroundColor=none;strokeColor=#6c8ebf;strokeWidth=0;align=left;spacing=0;spacingTop=8;spacingLeft=8;spacingRight=8;spacingBottom=6;shadow=0;rounded=1;gradientColor=#7ea6e0;fontColor=#000000;fontStyle=1;opacity=40;" parent="b77LTyn4byEdy7xEsxy5-223" vertex="1">
          <mxGeometry x="54" width="185" height="29" as="geometry">
            <mxRectangle width="185" height="29" as="alternateBounds" />
          </mxGeometry>
        </mxCell>
        <mxCell id="b77LTyn4byEdy7xEsxy5-226" value="BINARY(16)" style="shape=partialRectangle;html=1;whiteSpace=wrap;connectable=0;fillColor=#dae8fc;top=0;left=0;bottom=0;right=0;overflow=hidden;labelBackgroundColor=none;strokeColor=#6c8ebf;strokeWidth=0;align=left;spacing=0;spacingTop=8;spacingLeft=8;spacingRight=8;spacingBottom=6;shadow=0;rounded=1;gradientColor=#7ea6e0;fontColor=#000000;fontStyle=1;opacity=40;" parent="b77LTyn4byEdy7xEsxy5-223" vertex="1">
          <mxGeometry x="239" width="95" height="29" as="geometry">
            <mxRectangle width="95" height="29" as="alternateBounds" />
          </mxGeometry>
        </mxCell>
        <mxCell id="b77LTyn4byEdy7xEsxy5-227" style="shape=tableRow;horizontal=0;startSize=0;swimlaneHead=0;swimlaneBody=0;top=0;left=0;bottom=0;right=0;collapsible=0;dropTarget=0;fillColor=#dae8fc;points=[[0,0.5],[1,0.5]];portConstraint=eastwest;labelBackgroundColor=none;strokeColor=#6c8ebf;shadow=0;rounded=1;gradientColor=#7ea6e0;fontColor=#000000;fontStyle=1;opacity=40;" parent="b77LTyn4byEdy7xEsxy5-222" vertex="1">
          <mxGeometry y="59" width="333.99" height="28" as="geometry" />
        </mxCell>
        <mxCell id="b77LTyn4byEdy7xEsxy5-228" value="" style="shape=partialRectangle;html=1;whiteSpace=wrap;connectable=0;fillColor=#dae8fc;top=0;left=0;bottom=0;right=0;overflow=hidden;labelBackgroundColor=none;strokeColor=#6c8ebf;strokeWidth=0;spacing=0;spacingTop=8;spacingLeft=8;spacingRight=8;spacingBottom=6;shadow=0;rounded=1;gradientColor=#7ea6e0;fontColor=#000000;fontStyle=1;opacity=40;" parent="b77LTyn4byEdy7xEsxy5-227" vertex="1">
          <mxGeometry width="54" height="28" as="geometry">
            <mxRectangle width="54" height="28" as="alternateBounds" />
          </mxGeometry>
        </mxCell>
        <mxCell id="b77LTyn4byEdy7xEsxy5-229" value="userId" style="shape=partialRectangle;html=1;whiteSpace=wrap;connectable=0;fillColor=#dae8fc;top=0;left=0;bottom=0;right=0;overflow=hidden;labelBackgroundColor=none;strokeColor=#6c8ebf;strokeWidth=0;spacing=0;spacingTop=8;spacingLeft=8;spacingRight=8;spacingBottom=6;align=left;shadow=0;rounded=1;gradientColor=#7ea6e0;fontColor=#000000;fontStyle=1;opacity=40;" parent="b77LTyn4byEdy7xEsxy5-227" vertex="1">
          <mxGeometry x="54" width="185" height="28" as="geometry">
            <mxRectangle width="185" height="28" as="alternateBounds" />
          </mxGeometry>
        </mxCell>
        <mxCell id="b77LTyn4byEdy7xEsxy5-230" value="BINARY(16)" style="shape=partialRectangle;html=1;whiteSpace=wrap;connectable=0;fillColor=#dae8fc;top=0;left=0;bottom=0;right=0;overflow=hidden;labelBackgroundColor=none;strokeColor=#6c8ebf;strokeWidth=0;spacing=0;spacingTop=8;spacingLeft=8;spacingRight=8;spacingBottom=6;align=left;shadow=0;rounded=1;gradientColor=#7ea6e0;fontColor=#000000;fontStyle=1;opacity=40;" parent="b77LTyn4byEdy7xEsxy5-227" vertex="1">
          <mxGeometry x="239" width="95" height="28" as="geometry">
            <mxRectangle width="95" height="28" as="alternateBounds" />
          </mxGeometry>
        </mxCell>
        <mxCell id="b77LTyn4byEdy7xEsxy5-231" style="shape=tableRow;horizontal=0;startSize=0;swimlaneHead=0;swimlaneBody=0;top=0;left=0;bottom=0;right=0;collapsible=0;dropTarget=0;fillColor=#dae8fc;points=[[0,0.5],[1,0.5]];portConstraint=eastwest;labelBackgroundColor=none;strokeColor=#6c8ebf;shadow=0;rounded=1;gradientColor=#7ea6e0;fontColor=#000000;fontStyle=1;opacity=40;" parent="b77LTyn4byEdy7xEsxy5-222" vertex="1">
          <mxGeometry y="87" width="333.99" height="28" as="geometry" />
        </mxCell>
        <mxCell id="b77LTyn4byEdy7xEsxy5-232" style="shape=partialRectangle;html=1;whiteSpace=wrap;connectable=0;fillColor=#dae8fc;top=0;left=0;bottom=0;right=0;overflow=hidden;labelBackgroundColor=none;strokeColor=#6c8ebf;strokeWidth=0;spacing=0;spacingTop=8;spacingLeft=8;spacingRight=8;spacingBottom=6;shadow=0;rounded=1;gradientColor=#7ea6e0;fontColor=#000000;fontStyle=1;opacity=40;" parent="b77LTyn4byEdy7xEsxy5-231" vertex="1">
          <mxGeometry width="54" height="28" as="geometry">
            <mxRectangle width="54" height="28" as="alternateBounds" />
          </mxGeometry>
        </mxCell>
        <mxCell id="b77LTyn4byEdy7xEsxy5-233" value="incomingRequests [ ]" style="shape=partialRectangle;html=1;whiteSpace=wrap;connectable=0;fillColor=#dae8fc;top=0;left=0;bottom=0;right=0;overflow=hidden;labelBackgroundColor=none;strokeColor=#6c8ebf;strokeWidth=0;spacing=0;spacingTop=8;spacingLeft=8;spacingRight=8;spacingBottom=6;align=left;shadow=0;rounded=1;gradientColor=#7ea6e0;fontColor=#000000;fontStyle=1;opacity=40;" parent="b77LTyn4byEdy7xEsxy5-231" vertex="1">
          <mxGeometry x="54" width="185" height="28" as="geometry">
            <mxRectangle width="185" height="28" as="alternateBounds" />
          </mxGeometry>
        </mxCell>
        <mxCell id="b77LTyn4byEdy7xEsxy5-234" value="JSON&lt;br&gt;" style="shape=partialRectangle;html=1;whiteSpace=wrap;connectable=0;fillColor=#dae8fc;top=0;left=0;bottom=0;right=0;overflow=hidden;labelBackgroundColor=none;strokeColor=#6c8ebf;strokeWidth=0;spacing=0;spacingTop=8;spacingLeft=8;spacingRight=8;spacingBottom=6;align=left;shadow=0;rounded=1;gradientColor=#7ea6e0;fontColor=#000000;fontStyle=1;opacity=40;" parent="b77LTyn4byEdy7xEsxy5-231" vertex="1">
          <mxGeometry x="239" width="95" height="28" as="geometry">
            <mxRectangle width="95" height="28" as="alternateBounds" />
          </mxGeometry>
        </mxCell>
        <mxCell id="211" style="shape=tableRow;horizontal=0;startSize=0;swimlaneHead=0;swimlaneBody=0;top=0;left=0;bottom=0;right=0;collapsible=0;dropTarget=0;fillColor=#dae8fc;points=[[0,0.5],[1,0.5]];portConstraint=eastwest;labelBackgroundColor=none;strokeColor=#6c8ebf;shadow=0;rounded=1;gradientColor=#7ea6e0;fontColor=#000000;fontStyle=1;opacity=40;swimlaneLine=1;" parent="b77LTyn4byEdy7xEsxy5-222" vertex="1">
          <mxGeometry y="115" width="333.99" height="29" as="geometry" />
        </mxCell>
        <mxCell id="212" style="shape=partialRectangle;html=1;whiteSpace=wrap;connectable=0;fillColor=#dae8fc;top=0;left=0;bottom=0;right=0;overflow=hidden;labelBackgroundColor=none;strokeColor=#6c8ebf;strokeWidth=0;spacing=0;spacingTop=8;spacingLeft=8;spacingRight=8;spacingBottom=6;shadow=0;rounded=1;gradientColor=#7ea6e0;fontColor=#000000;fontStyle=1;opacity=40;" parent="211" vertex="1">
          <mxGeometry width="54" height="29" as="geometry">
            <mxRectangle width="54" height="29" as="alternateBounds" />
          </mxGeometry>
        </mxCell>
        <mxCell id="213" value="outgoingRequests[ ]" style="shape=partialRectangle;html=1;whiteSpace=wrap;connectable=0;fillColor=#dae8fc;top=0;left=0;bottom=0;right=0;overflow=hidden;labelBackgroundColor=none;strokeColor=#6c8ebf;strokeWidth=0;spacing=0;spacingTop=8;spacingLeft=8;spacingRight=8;spacingBottom=6;align=left;shadow=0;rounded=1;gradientColor=#7ea6e0;fontColor=#000000;fontStyle=1;opacity=40;" parent="211" vertex="1">
          <mxGeometry x="54" width="185" height="29" as="geometry">
            <mxRectangle width="185" height="29" as="alternateBounds" />
          </mxGeometry>
        </mxCell>
        <mxCell id="214" value="JSON" style="shape=partialRectangle;html=1;whiteSpace=wrap;connectable=0;fillColor=#dae8fc;top=0;left=0;bottom=0;right=0;overflow=hidden;labelBackgroundColor=none;strokeColor=#6c8ebf;strokeWidth=0;spacing=0;spacingTop=8;spacingLeft=8;spacingRight=8;spacingBottom=6;align=left;shadow=0;rounded=1;gradientColor=#7ea6e0;fontColor=#000000;fontStyle=1;opacity=40;" parent="211" vertex="1">
          <mxGeometry x="239" width="95" height="29" as="geometry">
            <mxRectangle width="95" height="29" as="alternateBounds" />
          </mxGeometry>
        </mxCell>
        <mxCell id="hzA-eIstf_x2RpdJhU5U-239" style="shape=tableRow;horizontal=0;startSize=0;swimlaneHead=0;swimlaneBody=0;top=0;left=0;bottom=0;right=0;collapsible=0;dropTarget=0;fillColor=#dae8fc;points=[[0,0.5],[1,0.5]];portConstraint=eastwest;labelBackgroundColor=none;strokeColor=#6c8ebf;shadow=0;rounded=1;gradientColor=#7ea6e0;fontColor=#000000;fontStyle=1;opacity=40;swimlaneLine=1;" parent="b77LTyn4byEdy7xEsxy5-222" vertex="1">
          <mxGeometry y="144" width="333.99" height="29" as="geometry" />
        </mxCell>
        <mxCell id="hzA-eIstf_x2RpdJhU5U-240" style="shape=partialRectangle;html=1;whiteSpace=wrap;connectable=0;fillColor=#dae8fc;top=0;left=0;bottom=0;right=0;overflow=hidden;labelBackgroundColor=none;strokeColor=#6c8ebf;strokeWidth=0;spacing=0;spacingTop=8;spacingLeft=8;spacingRight=8;spacingBottom=6;shadow=0;rounded=1;gradientColor=#7ea6e0;fontColor=#000000;fontStyle=1;opacity=40;" parent="hzA-eIstf_x2RpdJhU5U-239" vertex="1">
          <mxGeometry width="54" height="29" as="geometry">
            <mxRectangle width="54" height="29" as="alternateBounds" />
          </mxGeometry>
        </mxCell>
        <mxCell id="hzA-eIstf_x2RpdJhU5U-241" value="isFresh&lt;br&gt;" style="shape=partialRectangle;html=1;whiteSpace=wrap;connectable=0;fillColor=#dae8fc;top=0;left=0;bottom=0;right=0;overflow=hidden;labelBackgroundColor=none;strokeColor=#6c8ebf;strokeWidth=0;spacing=0;spacingTop=8;spacingLeft=8;spacingRight=8;spacingBottom=6;align=left;shadow=0;rounded=1;gradientColor=#7ea6e0;fontColor=#000000;fontStyle=1;opacity=40;" parent="hzA-eIstf_x2RpdJhU5U-239" vertex="1">
          <mxGeometry x="54" width="185" height="29" as="geometry">
            <mxRectangle width="185" height="29" as="alternateBounds" />
          </mxGeometry>
        </mxCell>
        <mxCell id="hzA-eIstf_x2RpdJhU5U-242" value="BOOL" style="shape=partialRectangle;html=1;whiteSpace=wrap;connectable=0;fillColor=#dae8fc;top=0;left=0;bottom=0;right=0;overflow=hidden;labelBackgroundColor=none;strokeColor=#6c8ebf;strokeWidth=0;spacing=0;spacingTop=8;spacingLeft=8;spacingRight=8;spacingBottom=6;align=left;shadow=0;rounded=1;gradientColor=#7ea6e0;fontColor=#000000;fontStyle=1;opacity=40;" parent="hzA-eIstf_x2RpdJhU5U-239" vertex="1">
          <mxGeometry x="239" width="95" height="29" as="geometry">
            <mxRectangle width="95" height="29" as="alternateBounds" />
          </mxGeometry>
        </mxCell>
        <mxCell id="b77LTyn4byEdy7xEsxy5-251" style="shape=tableRow;horizontal=0;startSize=0;swimlaneHead=0;swimlaneBody=0;top=0;left=0;bottom=0;right=0;collapsible=0;dropTarget=0;fillColor=#dae8fc;points=[[0,0.5],[1,0.5]];portConstraint=eastwest;labelBackgroundColor=none;strokeColor=#6c8ebf;shadow=0;rounded=1;gradientColor=#7ea6e0;fontColor=#000000;fontStyle=1;opacity=40;" parent="b77LTyn4byEdy7xEsxy5-222" vertex="1">
          <mxGeometry y="173" width="333.99" height="27" as="geometry" />
        </mxCell>
        <mxCell id="b77LTyn4byEdy7xEsxy5-252" style="shape=partialRectangle;html=1;whiteSpace=wrap;connectable=0;fillColor=#dae8fc;top=0;left=0;bottom=0;right=0;overflow=hidden;labelBackgroundColor=none;strokeColor=#6c8ebf;strokeWidth=0;spacing=0;spacingTop=8;spacingLeft=8;spacingRight=8;spacingBottom=6;shadow=0;rounded=1;gradientColor=#7ea6e0;fontColor=#000000;fontStyle=1;opacity=40;" parent="b77LTyn4byEdy7xEsxy5-251" vertex="1">
          <mxGeometry width="54" height="27" as="geometry">
            <mxRectangle width="54" height="27" as="alternateBounds" />
          </mxGeometry>
        </mxCell>
        <mxCell id="b77LTyn4byEdy7xEsxy5-253" value="createdAt" style="shape=partialRectangle;html=1;whiteSpace=wrap;connectable=0;fillColor=#dae8fc;top=0;left=0;bottom=0;right=0;overflow=hidden;labelBackgroundColor=none;strokeColor=#6c8ebf;strokeWidth=0;spacing=0;spacingTop=8;spacingLeft=8;spacingRight=8;spacingBottom=6;align=left;shadow=0;rounded=1;gradientColor=#7ea6e0;fontColor=#000000;fontStyle=1;opacity=40;" parent="b77LTyn4byEdy7xEsxy5-251" vertex="1">
          <mxGeometry x="54" width="185" height="27" as="geometry">
            <mxRectangle width="185" height="27" as="alternateBounds" />
          </mxGeometry>
        </mxCell>
        <mxCell id="b77LTyn4byEdy7xEsxy5-254" value="DATETIME" style="shape=partialRectangle;html=1;whiteSpace=wrap;connectable=0;fillColor=#dae8fc;top=0;left=0;bottom=0;right=0;overflow=hidden;labelBackgroundColor=none;strokeColor=#6c8ebf;strokeWidth=0;spacing=0;spacingTop=8;spacingLeft=8;spacingRight=8;spacingBottom=6;align=left;shadow=0;rounded=1;gradientColor=#7ea6e0;fontColor=#000000;fontStyle=1;opacity=40;" parent="b77LTyn4byEdy7xEsxy5-251" vertex="1">
          <mxGeometry x="239" width="95" height="27" as="geometry">
            <mxRectangle width="95" height="27" as="alternateBounds" />
          </mxGeometry>
        </mxCell>
        <mxCell id="b77LTyn4byEdy7xEsxy5-255" style="shape=tableRow;horizontal=0;startSize=0;swimlaneHead=0;swimlaneBody=0;top=0;left=0;bottom=0;right=0;collapsible=0;dropTarget=0;fillColor=#dae8fc;points=[[0,0.5],[1,0.5]];portConstraint=eastwest;labelBackgroundColor=none;strokeColor=#6c8ebf;shadow=0;rounded=1;gradientColor=#7ea6e0;fontColor=#000000;fontStyle=1;opacity=40;" parent="b77LTyn4byEdy7xEsxy5-222" vertex="1">
          <mxGeometry y="200" width="333.99" height="28" as="geometry" />
        </mxCell>
        <mxCell id="b77LTyn4byEdy7xEsxy5-256" style="shape=partialRectangle;html=1;whiteSpace=wrap;connectable=0;fillColor=#dae8fc;top=0;left=0;bottom=0;right=0;overflow=hidden;labelBackgroundColor=none;strokeColor=#6c8ebf;strokeWidth=0;spacing=0;spacingTop=8;spacingLeft=8;spacingRight=8;spacingBottom=6;shadow=0;rounded=1;gradientColor=#7ea6e0;fontColor=#000000;fontStyle=1;opacity=40;" parent="b77LTyn4byEdy7xEsxy5-255" vertex="1">
          <mxGeometry width="54" height="28" as="geometry">
            <mxRectangle width="54" height="28" as="alternateBounds" />
          </mxGeometry>
        </mxCell>
        <mxCell id="b77LTyn4byEdy7xEsxy5-257" value="updatedAt" style="shape=partialRectangle;html=1;whiteSpace=wrap;connectable=0;fillColor=#dae8fc;top=0;left=0;bottom=0;right=0;overflow=hidden;labelBackgroundColor=none;strokeColor=#6c8ebf;strokeWidth=0;spacing=0;spacingTop=8;spacingLeft=8;spacingRight=8;spacingBottom=6;align=left;shadow=0;rounded=1;gradientColor=#7ea6e0;fontColor=#000000;fontStyle=1;opacity=40;" parent="b77LTyn4byEdy7xEsxy5-255" vertex="1">
          <mxGeometry x="54" width="185" height="28" as="geometry">
            <mxRectangle width="185" height="28" as="alternateBounds" />
          </mxGeometry>
        </mxCell>
        <mxCell id="b77LTyn4byEdy7xEsxy5-258" value="DATETIME" style="shape=partialRectangle;html=1;whiteSpace=wrap;connectable=0;fillColor=#dae8fc;top=0;left=0;bottom=0;right=0;overflow=hidden;labelBackgroundColor=none;strokeColor=#6c8ebf;strokeWidth=0;spacing=0;spacingTop=8;spacingLeft=8;spacingRight=8;spacingBottom=6;align=left;shadow=0;rounded=1;gradientColor=#7ea6e0;fontColor=#000000;fontStyle=1;opacity=40;" parent="b77LTyn4byEdy7xEsxy5-255" vertex="1">
          <mxGeometry x="239" width="95" height="28" as="geometry">
            <mxRectangle width="95" height="28" as="alternateBounds" />
          </mxGeometry>
        </mxCell>
        <mxCell id="tcfv8VdbGHe9oQWNBsRK-214" value="Meeting Invite" style="shape=table;startSize=30;container=1;collapsible=0;childLayout=tableLayout;fontStyle=5;align=left;labelBackgroundColor=none;spacing=6;swimlaneLine=1;fillColor=#ffcc99;strokeColor=#36393d;shadow=1;rounded=1;swimlaneFillColor=default;fontFamily=Helvetica;fontSize=14;opacity=40;gradientColor=default;fontColor=#000000;" parent="1" vertex="1">
          <mxGeometry x="922" y="720" width="333.99" height="226.30955287388406" as="geometry" />
        </mxCell>
        <mxCell id="tcfv8VdbGHe9oQWNBsRK-215" value="" style="shape=tableRow;horizontal=0;startSize=0;swimlaneHead=0;swimlaneBody=0;top=0;left=0;bottom=0;right=0;collapsible=0;dropTarget=0;fillColor=#dae8fc;points=[[0,0.5],[1,0.5]];portConstraint=eastwest;labelBackgroundColor=none;swimlaneLine=0;strokeColor=#6c8ebf;shadow=0;rounded=1;gradientColor=#7ea6e0;fontColor=#000000;fontStyle=1;opacity=40;" parent="tcfv8VdbGHe9oQWNBsRK-214" vertex="1">
          <mxGeometry y="30" width="333.99" height="29" as="geometry" />
        </mxCell>
        <mxCell id="tcfv8VdbGHe9oQWNBsRK-216" value="PK" style="shape=partialRectangle;html=1;whiteSpace=wrap;connectable=0;fillColor=#dae8fc;top=0;left=0;bottom=0;right=0;overflow=hidden;labelBackgroundColor=none;strokeColor=#6c8ebf;strokeWidth=0;spacing=0;spacingTop=8;spacingLeft=8;spacingRight=8;spacingBottom=6;shadow=0;rounded=1;gradientColor=#7ea6e0;fontColor=#000000;fontStyle=1;opacity=40;" parent="tcfv8VdbGHe9oQWNBsRK-215" vertex="1">
          <mxGeometry width="54" height="29" as="geometry">
            <mxRectangle width="54" height="29" as="alternateBounds" />
          </mxGeometry>
        </mxCell>
        <mxCell id="tcfv8VdbGHe9oQWNBsRK-217" value="_id" style="shape=partialRectangle;html=1;whiteSpace=wrap;connectable=0;fillColor=#dae8fc;top=0;left=0;bottom=0;right=0;overflow=hidden;labelBackgroundColor=none;strokeColor=#6c8ebf;strokeWidth=0;align=left;spacing=0;spacingTop=8;spacingLeft=8;spacingRight=8;spacingBottom=6;shadow=0;rounded=1;gradientColor=#7ea6e0;fontColor=#000000;fontStyle=1;opacity=40;" parent="tcfv8VdbGHe9oQWNBsRK-215" vertex="1">
          <mxGeometry x="54" width="185" height="29" as="geometry">
            <mxRectangle width="185" height="29" as="alternateBounds" />
          </mxGeometry>
        </mxCell>
        <mxCell id="tcfv8VdbGHe9oQWNBsRK-218" value="BINARY(16)" style="shape=partialRectangle;html=1;whiteSpace=wrap;connectable=0;fillColor=#dae8fc;top=0;left=0;bottom=0;right=0;overflow=hidden;labelBackgroundColor=none;strokeColor=#6c8ebf;strokeWidth=0;align=left;spacing=0;spacingTop=8;spacingLeft=8;spacingRight=8;spacingBottom=6;shadow=0;rounded=1;gradientColor=#7ea6e0;fontColor=#000000;fontStyle=1;opacity=40;" parent="tcfv8VdbGHe9oQWNBsRK-215" vertex="1">
          <mxGeometry x="239" width="95" height="29" as="geometry">
            <mxRectangle width="95" height="29" as="alternateBounds" />
          </mxGeometry>
        </mxCell>
        <mxCell id="tcfv8VdbGHe9oQWNBsRK-219" style="shape=tableRow;horizontal=0;startSize=0;swimlaneHead=0;swimlaneBody=0;top=0;left=0;bottom=0;right=0;collapsible=0;dropTarget=0;fillColor=#dae8fc;points=[[0,0.5],[1,0.5]];portConstraint=eastwest;labelBackgroundColor=none;strokeColor=#6c8ebf;shadow=0;rounded=1;gradientColor=#7ea6e0;fontColor=#000000;fontStyle=1;opacity=40;" parent="tcfv8VdbGHe9oQWNBsRK-214" vertex="1">
          <mxGeometry y="59" width="333.99" height="28" as="geometry" />
        </mxCell>
        <mxCell id="tcfv8VdbGHe9oQWNBsRK-220" value="" style="shape=partialRectangle;html=1;whiteSpace=wrap;connectable=0;fillColor=#dae8fc;top=0;left=0;bottom=0;right=0;overflow=hidden;labelBackgroundColor=none;strokeColor=#6c8ebf;strokeWidth=0;spacing=0;spacingTop=8;spacingLeft=8;spacingRight=8;spacingBottom=6;shadow=0;rounded=1;gradientColor=#7ea6e0;fontColor=#000000;fontStyle=1;opacity=40;" parent="tcfv8VdbGHe9oQWNBsRK-219" vertex="1">
          <mxGeometry width="54" height="28" as="geometry">
            <mxRectangle width="54" height="28" as="alternateBounds" />
          </mxGeometry>
        </mxCell>
        <mxCell id="tcfv8VdbGHe9oQWNBsRK-221" value="senderId : userId" style="shape=partialRectangle;html=1;whiteSpace=wrap;connectable=0;fillColor=#dae8fc;top=0;left=0;bottom=0;right=0;overflow=hidden;labelBackgroundColor=none;strokeColor=#6c8ebf;strokeWidth=0;spacing=0;spacingTop=8;spacingLeft=8;spacingRight=8;spacingBottom=6;align=left;shadow=0;rounded=1;gradientColor=#7ea6e0;fontColor=#000000;fontStyle=1;opacity=40;" parent="tcfv8VdbGHe9oQWNBsRK-219" vertex="1">
          <mxGeometry x="54" width="185" height="28" as="geometry">
            <mxRectangle width="185" height="28" as="alternateBounds" />
          </mxGeometry>
        </mxCell>
        <mxCell id="tcfv8VdbGHe9oQWNBsRK-222" value="BINARY(16)" style="shape=partialRectangle;html=1;whiteSpace=wrap;connectable=0;fillColor=#dae8fc;top=0;left=0;bottom=0;right=0;overflow=hidden;labelBackgroundColor=none;strokeColor=#6c8ebf;strokeWidth=0;spacing=0;spacingTop=8;spacingLeft=8;spacingRight=8;spacingBottom=6;align=left;shadow=0;rounded=1;gradientColor=#7ea6e0;fontColor=#000000;fontStyle=1;opacity=40;" parent="tcfv8VdbGHe9oQWNBsRK-219" vertex="1">
          <mxGeometry x="239" width="95" height="28" as="geometry">
            <mxRectangle width="95" height="28" as="alternateBounds" />
          </mxGeometry>
        </mxCell>
        <mxCell id="240" style="shape=tableRow;horizontal=0;startSize=0;swimlaneHead=0;swimlaneBody=0;top=0;left=0;bottom=0;right=0;collapsible=0;dropTarget=0;fillColor=#dae8fc;points=[[0,0.5],[1,0.5]];portConstraint=eastwest;labelBackgroundColor=none;strokeColor=#6c8ebf;shadow=0;rounded=1;gradientColor=#7ea6e0;fontColor=#000000;fontStyle=1;opacity=40;" parent="tcfv8VdbGHe9oQWNBsRK-214" vertex="1">
          <mxGeometry y="87" width="333.99" height="27" as="geometry" />
        </mxCell>
        <mxCell id="241" style="shape=partialRectangle;html=1;whiteSpace=wrap;connectable=0;fillColor=#dae8fc;top=0;left=0;bottom=0;right=0;overflow=hidden;labelBackgroundColor=none;strokeColor=#6c8ebf;strokeWidth=0;spacing=0;spacingTop=8;spacingLeft=8;spacingRight=8;spacingBottom=6;shadow=0;rounded=1;gradientColor=#7ea6e0;fontColor=#000000;fontStyle=1;opacity=40;" parent="240" vertex="1">
          <mxGeometry width="54" height="27" as="geometry">
            <mxRectangle width="54" height="27" as="alternateBounds" />
          </mxGeometry>
        </mxCell>
        <mxCell id="242" value="recieverId : userId" style="shape=partialRectangle;html=1;whiteSpace=wrap;connectable=0;fillColor=#dae8fc;top=0;left=0;bottom=0;right=0;overflow=hidden;labelBackgroundColor=none;strokeColor=#6c8ebf;strokeWidth=0;spacing=0;spacingTop=8;spacingLeft=8;spacingRight=8;spacingBottom=6;align=left;shadow=0;rounded=1;gradientColor=#7ea6e0;fontColor=#000000;fontStyle=1;opacity=40;" parent="240" vertex="1">
          <mxGeometry x="54" width="185" height="27" as="geometry">
            <mxRectangle width="185" height="27" as="alternateBounds" />
          </mxGeometry>
        </mxCell>
        <mxCell id="243" value="BINARY(16)" style="shape=partialRectangle;html=1;whiteSpace=wrap;connectable=0;fillColor=#dae8fc;top=0;left=0;bottom=0;right=0;overflow=hidden;labelBackgroundColor=none;strokeColor=#6c8ebf;strokeWidth=0;spacing=0;spacingTop=8;spacingLeft=8;spacingRight=8;spacingBottom=6;align=left;shadow=0;rounded=1;gradientColor=#7ea6e0;fontColor=#000000;fontStyle=1;opacity=40;" parent="240" vertex="1">
          <mxGeometry x="239" width="95" height="27" as="geometry">
            <mxRectangle width="95" height="27" as="alternateBounds" />
          </mxGeometry>
        </mxCell>
        <mxCell id="tcfv8VdbGHe9oQWNBsRK-223" style="shape=tableRow;horizontal=0;startSize=0;swimlaneHead=0;swimlaneBody=0;top=0;left=0;bottom=0;right=0;collapsible=0;dropTarget=0;fillColor=#dae8fc;points=[[0,0.5],[1,0.5]];portConstraint=eastwest;labelBackgroundColor=none;strokeColor=#6c8ebf;shadow=0;rounded=1;gradientColor=#7ea6e0;fontColor=#000000;fontStyle=1;opacity=40;" parent="tcfv8VdbGHe9oQWNBsRK-214" vertex="1">
          <mxGeometry y="114" width="333.99" height="28" as="geometry" />
        </mxCell>
        <mxCell id="tcfv8VdbGHe9oQWNBsRK-224" style="shape=partialRectangle;html=1;whiteSpace=wrap;connectable=0;fillColor=#dae8fc;top=0;left=0;bottom=0;right=0;overflow=hidden;labelBackgroundColor=none;strokeColor=#6c8ebf;strokeWidth=0;spacing=0;spacingTop=8;spacingLeft=8;spacingRight=8;spacingBottom=6;shadow=0;rounded=1;gradientColor=#7ea6e0;fontColor=#000000;fontStyle=1;opacity=40;" parent="tcfv8VdbGHe9oQWNBsRK-223" vertex="1">
          <mxGeometry width="54" height="28" as="geometry">
            <mxRectangle width="54" height="28" as="alternateBounds" />
          </mxGeometry>
        </mxCell>
        <mxCell id="tcfv8VdbGHe9oQWNBsRK-225" value="meetingId" style="shape=partialRectangle;html=1;whiteSpace=wrap;connectable=0;fillColor=#dae8fc;top=0;left=0;bottom=0;right=0;overflow=hidden;labelBackgroundColor=none;strokeColor=#6c8ebf;strokeWidth=0;spacing=0;spacingTop=8;spacingLeft=8;spacingRight=8;spacingBottom=6;align=left;shadow=0;rounded=1;gradientColor=#7ea6e0;fontColor=#000000;fontStyle=1;opacity=40;" parent="tcfv8VdbGHe9oQWNBsRK-223" vertex="1">
          <mxGeometry x="54" width="185" height="28" as="geometry">
            <mxRectangle width="185" height="28" as="alternateBounds" />
          </mxGeometry>
        </mxCell>
        <mxCell id="tcfv8VdbGHe9oQWNBsRK-226" value="BOOL" style="shape=partialRectangle;html=1;whiteSpace=wrap;connectable=0;fillColor=#dae8fc;top=0;left=0;bottom=0;right=0;overflow=hidden;labelBackgroundColor=none;strokeColor=#6c8ebf;strokeWidth=0;spacing=0;spacingTop=8;spacingLeft=8;spacingRight=8;spacingBottom=6;align=left;shadow=0;rounded=1;gradientColor=#7ea6e0;fontColor=#000000;fontStyle=1;opacity=40;" parent="tcfv8VdbGHe9oQWNBsRK-223" vertex="1">
          <mxGeometry x="239" width="95" height="28" as="geometry">
            <mxRectangle width="95" height="28" as="alternateBounds" />
          </mxGeometry>
        </mxCell>
        <mxCell id="hzA-eIstf_x2RpdJhU5U-243" style="shape=tableRow;horizontal=0;startSize=0;swimlaneHead=0;swimlaneBody=0;top=0;left=0;bottom=0;right=0;collapsible=0;dropTarget=0;fillColor=#dae8fc;points=[[0,0.5],[1,0.5]];portConstraint=eastwest;labelBackgroundColor=none;strokeColor=#6c8ebf;shadow=0;rounded=1;gradientColor=#7ea6e0;fontColor=#000000;fontStyle=1;opacity=40;swimlaneLine=1;" parent="tcfv8VdbGHe9oQWNBsRK-214" vertex="1">
          <mxGeometry y="142" width="333.99" height="29" as="geometry" />
        </mxCell>
        <mxCell id="hzA-eIstf_x2RpdJhU5U-244" style="shape=partialRectangle;html=1;whiteSpace=wrap;connectable=0;fillColor=#dae8fc;top=0;left=0;bottom=0;right=0;overflow=hidden;labelBackgroundColor=none;strokeColor=#6c8ebf;strokeWidth=0;spacing=0;spacingTop=8;spacingLeft=8;spacingRight=8;spacingBottom=6;shadow=0;rounded=1;gradientColor=#7ea6e0;fontColor=#000000;fontStyle=1;opacity=40;" parent="hzA-eIstf_x2RpdJhU5U-243" vertex="1">
          <mxGeometry width="54" height="29" as="geometry">
            <mxRectangle width="54" height="29" as="alternateBounds" />
          </mxGeometry>
        </mxCell>
        <mxCell id="hzA-eIstf_x2RpdJhU5U-245" value="isFresh" style="shape=partialRectangle;html=1;whiteSpace=wrap;connectable=0;fillColor=#dae8fc;top=0;left=0;bottom=0;right=0;overflow=hidden;labelBackgroundColor=none;strokeColor=#6c8ebf;strokeWidth=0;spacing=0;spacingTop=8;spacingLeft=8;spacingRight=8;spacingBottom=6;align=left;shadow=0;rounded=1;gradientColor=#7ea6e0;fontColor=#000000;fontStyle=1;opacity=40;" parent="hzA-eIstf_x2RpdJhU5U-243" vertex="1">
          <mxGeometry x="54" width="185" height="29" as="geometry">
            <mxRectangle width="185" height="29" as="alternateBounds" />
          </mxGeometry>
        </mxCell>
        <mxCell id="hzA-eIstf_x2RpdJhU5U-246" value="BOOL" style="shape=partialRectangle;html=1;whiteSpace=wrap;connectable=0;fillColor=#dae8fc;top=0;left=0;bottom=0;right=0;overflow=hidden;labelBackgroundColor=none;strokeColor=#6c8ebf;strokeWidth=0;spacing=0;spacingTop=8;spacingLeft=8;spacingRight=8;spacingBottom=6;align=left;shadow=0;rounded=1;gradientColor=#7ea6e0;fontColor=#000000;fontStyle=1;opacity=40;" parent="hzA-eIstf_x2RpdJhU5U-243" vertex="1">
          <mxGeometry x="239" width="95" height="29" as="geometry">
            <mxRectangle width="95" height="29" as="alternateBounds" />
          </mxGeometry>
        </mxCell>
        <mxCell id="tcfv8VdbGHe9oQWNBsRK-231" style="shape=tableRow;horizontal=0;startSize=0;swimlaneHead=0;swimlaneBody=0;top=0;left=0;bottom=0;right=0;collapsible=0;dropTarget=0;fillColor=#dae8fc;points=[[0,0.5],[1,0.5]];portConstraint=eastwest;labelBackgroundColor=none;strokeColor=#6c8ebf;shadow=0;rounded=1;gradientColor=#7ea6e0;fontColor=#000000;fontStyle=1;opacity=40;" parent="tcfv8VdbGHe9oQWNBsRK-214" vertex="1">
          <mxGeometry y="171" width="333.99" height="27" as="geometry" />
        </mxCell>
        <mxCell id="tcfv8VdbGHe9oQWNBsRK-232" style="shape=partialRectangle;html=1;whiteSpace=wrap;connectable=0;fillColor=#dae8fc;top=0;left=0;bottom=0;right=0;overflow=hidden;labelBackgroundColor=none;strokeColor=#6c8ebf;strokeWidth=0;spacing=0;spacingTop=8;spacingLeft=8;spacingRight=8;spacingBottom=6;shadow=0;rounded=1;gradientColor=#7ea6e0;fontColor=#000000;fontStyle=1;opacity=40;" parent="tcfv8VdbGHe9oQWNBsRK-231" vertex="1">
          <mxGeometry width="54" height="27" as="geometry">
            <mxRectangle width="54" height="27" as="alternateBounds" />
          </mxGeometry>
        </mxCell>
        <mxCell id="tcfv8VdbGHe9oQWNBsRK-233" value="createdAt" style="shape=partialRectangle;html=1;whiteSpace=wrap;connectable=0;fillColor=#dae8fc;top=0;left=0;bottom=0;right=0;overflow=hidden;labelBackgroundColor=none;strokeColor=#6c8ebf;strokeWidth=0;spacing=0;spacingTop=8;spacingLeft=8;spacingRight=8;spacingBottom=6;align=left;shadow=0;rounded=1;gradientColor=#7ea6e0;fontColor=#000000;fontStyle=1;opacity=40;" parent="tcfv8VdbGHe9oQWNBsRK-231" vertex="1">
          <mxGeometry x="54" width="185" height="27" as="geometry">
            <mxRectangle width="185" height="27" as="alternateBounds" />
          </mxGeometry>
        </mxCell>
        <mxCell id="tcfv8VdbGHe9oQWNBsRK-234" value="DATETIME" style="shape=partialRectangle;html=1;whiteSpace=wrap;connectable=0;fillColor=#dae8fc;top=0;left=0;bottom=0;right=0;overflow=hidden;labelBackgroundColor=none;strokeColor=#6c8ebf;strokeWidth=0;spacing=0;spacingTop=8;spacingLeft=8;spacingRight=8;spacingBottom=6;align=left;shadow=0;rounded=1;gradientColor=#7ea6e0;fontColor=#000000;fontStyle=1;opacity=40;" parent="tcfv8VdbGHe9oQWNBsRK-231" vertex="1">
          <mxGeometry x="239" width="95" height="27" as="geometry">
            <mxRectangle width="95" height="27" as="alternateBounds" />
          </mxGeometry>
        </mxCell>
        <mxCell id="tcfv8VdbGHe9oQWNBsRK-235" style="shape=tableRow;horizontal=0;startSize=0;swimlaneHead=0;swimlaneBody=0;top=0;left=0;bottom=0;right=0;collapsible=0;dropTarget=0;fillColor=#dae8fc;points=[[0,0.5],[1,0.5]];portConstraint=eastwest;labelBackgroundColor=none;strokeColor=#6c8ebf;shadow=0;rounded=1;gradientColor=#7ea6e0;fontColor=#000000;fontStyle=1;opacity=40;" parent="tcfv8VdbGHe9oQWNBsRK-214" vertex="1">
          <mxGeometry y="198" width="333.99" height="28" as="geometry" />
        </mxCell>
        <mxCell id="tcfv8VdbGHe9oQWNBsRK-236" style="shape=partialRectangle;html=1;whiteSpace=wrap;connectable=0;fillColor=#dae8fc;top=0;left=0;bottom=0;right=0;overflow=hidden;labelBackgroundColor=none;strokeColor=#6c8ebf;strokeWidth=0;spacing=0;spacingTop=8;spacingLeft=8;spacingRight=8;spacingBottom=6;shadow=0;rounded=1;gradientColor=#7ea6e0;fontColor=#000000;fontStyle=1;opacity=40;" parent="tcfv8VdbGHe9oQWNBsRK-235" vertex="1">
          <mxGeometry width="54" height="28" as="geometry">
            <mxRectangle width="54" height="28" as="alternateBounds" />
          </mxGeometry>
        </mxCell>
        <mxCell id="tcfv8VdbGHe9oQWNBsRK-237" value="updatedAt" style="shape=partialRectangle;html=1;whiteSpace=wrap;connectable=0;fillColor=#dae8fc;top=0;left=0;bottom=0;right=0;overflow=hidden;labelBackgroundColor=none;strokeColor=#6c8ebf;strokeWidth=0;spacing=0;spacingTop=8;spacingLeft=8;spacingRight=8;spacingBottom=6;align=left;shadow=0;rounded=1;gradientColor=#7ea6e0;fontColor=#000000;fontStyle=1;opacity=40;" parent="tcfv8VdbGHe9oQWNBsRK-235" vertex="1">
          <mxGeometry x="54" width="185" height="28" as="geometry">
            <mxRectangle width="185" height="28" as="alternateBounds" />
          </mxGeometry>
        </mxCell>
        <mxCell id="tcfv8VdbGHe9oQWNBsRK-238" value="DATETIME" style="shape=partialRectangle;html=1;whiteSpace=wrap;connectable=0;fillColor=#dae8fc;top=0;left=0;bottom=0;right=0;overflow=hidden;labelBackgroundColor=none;strokeColor=#6c8ebf;strokeWidth=0;spacing=0;spacingTop=8;spacingLeft=8;spacingRight=8;spacingBottom=6;align=left;shadow=0;rounded=1;gradientColor=#7ea6e0;fontColor=#000000;fontStyle=1;opacity=40;" parent="tcfv8VdbGHe9oQWNBsRK-235" vertex="1">
          <mxGeometry x="239" width="95" height="28" as="geometry">
            <mxRectangle width="95" height="28" as="alternateBounds" />
          </mxGeometry>
        </mxCell>
        <mxCell id="tcfv8VdbGHe9oQWNBsRK-286" value="" style="shape=waypoint;sketch=0;fillStyle=solid;size=6;pointerEvents=1;points=[];fillColor=none;resizable=0;rotatable=0;perimeter=centerPerimeter;snapToPoint=1;hachureGap=4;jiggle=2;curveFitting=1;fontFamily=Architects Daughter;fontSource=https%3A%2F%2Ffonts.googleapis.com%2Fcss%3Ffamily%3DArchitects%2BDaughter;fontSize=20;" parent="1" vertex="1">
          <mxGeometry x="504" y="732" width="20" height="20" as="geometry" />
        </mxCell>
        <mxCell id="tcfv8VdbGHe9oQWNBsRK-304" value="" style="endArrow=classic;html=1;rounded=0;hachureGap=4;fontFamily=Architects Daughter;fontSource=https%3A%2F%2Ffonts.googleapis.com%2Fcss%3Ffamily%3DArchitects%2BDaughter;fontSize=16;entryDx=0;entryDy=0;strokeColor=#6c8bef;strokeWidth=3;opacity=40;" parent="1" edge="1">
          <mxGeometry width="50" height="50" relative="1" as="geometry">
            <mxPoint x="1289" y="304" as="sourcePoint" />
            <mxPoint x="1288.9999999999995" y="304" as="targetPoint" />
          </mxGeometry>
        </mxCell>
        <mxCell id="215" value="Meeting" style="shape=table;startSize=30;container=1;collapsible=0;childLayout=tableLayout;fontStyle=5;align=left;labelBackgroundColor=none;spacing=6;swimlaneLine=1;fillColor=#ffcc99;strokeColor=#36393d;shadow=1;rounded=1;swimlaneFillColor=default;fontFamily=Helvetica;fontSize=14;opacity=40;gradientColor=default;fontColor=#000000;" parent="1" vertex="1">
          <mxGeometry x="924" y="444" width="333.99" height="256.75" as="geometry" />
        </mxCell>
        <mxCell id="216" value="" style="shape=tableRow;horizontal=0;startSize=0;swimlaneHead=0;swimlaneBody=0;top=0;left=0;bottom=0;right=0;collapsible=0;dropTarget=0;fillColor=#dae8fc;points=[[0,0.5],[1,0.5]];portConstraint=eastwest;labelBackgroundColor=none;swimlaneLine=0;strokeColor=#6c8ebf;shadow=0;rounded=1;gradientColor=#7ea6e0;fontColor=#000000;fontStyle=1;opacity=40;" parent="215" vertex="1">
          <mxGeometry y="30" width="333.99" height="29" as="geometry" />
        </mxCell>
        <mxCell id="217" value="PK" style="shape=partialRectangle;html=1;whiteSpace=wrap;connectable=0;fillColor=#dae8fc;top=0;left=0;bottom=0;right=0;overflow=hidden;labelBackgroundColor=none;strokeColor=#6c8ebf;strokeWidth=0;spacing=0;spacingTop=8;spacingLeft=8;spacingRight=8;spacingBottom=6;shadow=0;rounded=1;gradientColor=#7ea6e0;fontColor=#000000;fontStyle=1;opacity=40;" parent="216" vertex="1">
          <mxGeometry width="54" height="29" as="geometry">
            <mxRectangle width="54" height="29" as="alternateBounds" />
          </mxGeometry>
        </mxCell>
        <mxCell id="218" value="_id" style="shape=partialRectangle;html=1;whiteSpace=wrap;connectable=0;fillColor=#dae8fc;top=0;left=0;bottom=0;right=0;overflow=hidden;labelBackgroundColor=none;strokeColor=#6c8ebf;strokeWidth=0;align=left;spacing=0;spacingTop=8;spacingLeft=8;spacingRight=8;spacingBottom=6;shadow=0;rounded=1;gradientColor=#7ea6e0;fontColor=#000000;fontStyle=1;opacity=40;" parent="216" vertex="1">
          <mxGeometry x="54" width="185" height="29" as="geometry">
            <mxRectangle width="185" height="29" as="alternateBounds" />
          </mxGeometry>
        </mxCell>
        <mxCell id="219" value="BINARY(16)" style="shape=partialRectangle;html=1;whiteSpace=wrap;connectable=0;fillColor=#dae8fc;top=0;left=0;bottom=0;right=0;overflow=hidden;labelBackgroundColor=none;strokeColor=#6c8ebf;strokeWidth=0;align=left;spacing=0;spacingTop=8;spacingLeft=8;spacingRight=8;spacingBottom=6;shadow=0;rounded=1;gradientColor=#7ea6e0;fontColor=#000000;fontStyle=1;opacity=40;" parent="216" vertex="1">
          <mxGeometry x="239" width="95" height="29" as="geometry">
            <mxRectangle width="95" height="29" as="alternateBounds" />
          </mxGeometry>
        </mxCell>
        <mxCell id="220" style="shape=tableRow;horizontal=0;startSize=0;swimlaneHead=0;swimlaneBody=0;top=0;left=0;bottom=0;right=0;collapsible=0;dropTarget=0;fillColor=#dae8fc;points=[[0,0.5],[1,0.5]];portConstraint=eastwest;labelBackgroundColor=none;strokeColor=#6c8ebf;shadow=0;rounded=1;gradientColor=#7ea6e0;fontColor=#000000;fontStyle=1;opacity=40;" parent="215" vertex="1">
          <mxGeometry y="59" width="333.99" height="28" as="geometry" />
        </mxCell>
        <mxCell id="221" value="" style="shape=partialRectangle;html=1;whiteSpace=wrap;connectable=0;fillColor=#dae8fc;top=0;left=0;bottom=0;right=0;overflow=hidden;labelBackgroundColor=none;strokeColor=#6c8ebf;strokeWidth=0;spacing=0;spacingTop=8;spacingLeft=8;spacingRight=8;spacingBottom=6;shadow=0;rounded=1;gradientColor=#7ea6e0;fontColor=#000000;fontStyle=1;opacity=40;" parent="220" vertex="1">
          <mxGeometry width="54" height="28" as="geometry">
            <mxRectangle width="54" height="28" as="alternateBounds" />
          </mxGeometry>
        </mxCell>
        <mxCell id="222" value="creator : userId" style="shape=partialRectangle;html=1;whiteSpace=wrap;connectable=0;fillColor=#dae8fc;top=0;left=0;bottom=0;right=0;overflow=hidden;labelBackgroundColor=none;strokeColor=#6c8ebf;strokeWidth=0;spacing=0;spacingTop=8;spacingLeft=8;spacingRight=8;spacingBottom=6;align=left;shadow=0;rounded=1;gradientColor=#7ea6e0;fontColor=#000000;fontStyle=1;opacity=40;" parent="220" vertex="1">
          <mxGeometry x="54" width="185" height="28" as="geometry">
            <mxRectangle width="185" height="28" as="alternateBounds" />
          </mxGeometry>
        </mxCell>
        <mxCell id="223" value="BINARY(16)" style="shape=partialRectangle;html=1;whiteSpace=wrap;connectable=0;fillColor=#dae8fc;top=0;left=0;bottom=0;right=0;overflow=hidden;labelBackgroundColor=none;strokeColor=#6c8ebf;strokeWidth=0;spacing=0;spacingTop=8;spacingLeft=8;spacingRight=8;spacingBottom=6;align=left;shadow=0;rounded=1;gradientColor=#7ea6e0;fontColor=#000000;fontStyle=1;opacity=40;" parent="220" vertex="1">
          <mxGeometry x="239" width="95" height="28" as="geometry">
            <mxRectangle width="95" height="28" as="alternateBounds" />
          </mxGeometry>
        </mxCell>
        <mxCell id="224" style="shape=tableRow;horizontal=0;startSize=0;swimlaneHead=0;swimlaneBody=0;top=0;left=0;bottom=0;right=0;collapsible=0;dropTarget=0;fillColor=#dae8fc;points=[[0,0.5],[1,0.5]];portConstraint=eastwest;labelBackgroundColor=none;strokeColor=#6c8ebf;shadow=0;rounded=1;gradientColor=#7ea6e0;fontColor=#000000;fontStyle=1;opacity=40;" parent="215" vertex="1">
          <mxGeometry y="87" width="333.99" height="28" as="geometry" />
        </mxCell>
        <mxCell id="225" style="shape=partialRectangle;html=1;whiteSpace=wrap;connectable=0;fillColor=#dae8fc;top=0;left=0;bottom=0;right=0;overflow=hidden;labelBackgroundColor=none;strokeColor=#6c8ebf;strokeWidth=0;spacing=0;spacingTop=8;spacingLeft=8;spacingRight=8;spacingBottom=6;shadow=0;rounded=1;gradientColor=#7ea6e0;fontColor=#000000;fontStyle=1;opacity=40;" parent="224" vertex="1">
          <mxGeometry width="54" height="28" as="geometry">
            <mxRectangle width="54" height="28" as="alternateBounds" />
          </mxGeometry>
        </mxCell>
        <mxCell id="226" value="meetingLocationId" style="shape=partialRectangle;html=1;whiteSpace=wrap;connectable=0;fillColor=#dae8fc;top=0;left=0;bottom=0;right=0;overflow=hidden;labelBackgroundColor=none;strokeColor=#6c8ebf;strokeWidth=0;spacing=0;spacingTop=8;spacingLeft=8;spacingRight=8;spacingBottom=6;align=left;shadow=0;rounded=1;gradientColor=#7ea6e0;fontColor=#000000;fontStyle=1;opacity=40;" parent="224" vertex="1">
          <mxGeometry x="54" width="185" height="28" as="geometry">
            <mxRectangle width="185" height="28" as="alternateBounds" />
          </mxGeometry>
        </mxCell>
        <mxCell id="227" value="BINARY(16)" style="shape=partialRectangle;html=1;whiteSpace=wrap;connectable=0;fillColor=#dae8fc;top=0;left=0;bottom=0;right=0;overflow=hidden;labelBackgroundColor=none;strokeColor=#6c8ebf;strokeWidth=0;spacing=0;spacingTop=8;spacingLeft=8;spacingRight=8;spacingBottom=6;align=left;shadow=0;rounded=1;gradientColor=#7ea6e0;fontColor=#000000;fontStyle=1;opacity=40;" parent="224" vertex="1">
          <mxGeometry x="239" width="95" height="28" as="geometry">
            <mxRectangle width="95" height="28" as="alternateBounds" />
          </mxGeometry>
        </mxCell>
        <mxCell id="h6dopec1Y_itUhT0YeVJ-243" style="shape=tableRow;horizontal=0;startSize=0;swimlaneHead=0;swimlaneBody=0;top=0;left=0;bottom=0;right=0;collapsible=0;dropTarget=0;fillColor=#dae8fc;points=[[0,0.5],[1,0.5]];portConstraint=eastwest;labelBackgroundColor=none;strokeColor=#6c8ebf;shadow=0;rounded=1;gradientColor=#7ea6e0;fontColor=#000000;fontStyle=1;opacity=40;" vertex="1" parent="215">
          <mxGeometry y="115" width="333.99" height="29" as="geometry" />
        </mxCell>
        <mxCell id="h6dopec1Y_itUhT0YeVJ-244" style="shape=partialRectangle;html=1;whiteSpace=wrap;connectable=0;fillColor=#dae8fc;top=0;left=0;bottom=0;right=0;overflow=hidden;labelBackgroundColor=none;strokeColor=#6c8ebf;strokeWidth=0;spacing=0;spacingTop=8;spacingLeft=8;spacingRight=8;spacingBottom=6;shadow=0;rounded=1;gradientColor=#7ea6e0;fontColor=#000000;fontStyle=1;opacity=40;" vertex="1" parent="h6dopec1Y_itUhT0YeVJ-243">
          <mxGeometry width="54" height="29" as="geometry">
            <mxRectangle width="54" height="29" as="alternateBounds" />
          </mxGeometry>
        </mxCell>
        <mxCell id="h6dopec1Y_itUhT0YeVJ-245" value="meetingDate" style="shape=partialRectangle;html=1;whiteSpace=wrap;connectable=0;fillColor=#dae8fc;top=0;left=0;bottom=0;right=0;overflow=hidden;labelBackgroundColor=none;strokeColor=#6c8ebf;strokeWidth=0;spacing=0;spacingTop=8;spacingLeft=8;spacingRight=8;spacingBottom=6;align=left;shadow=0;rounded=1;gradientColor=#7ea6e0;fontColor=#000000;fontStyle=1;opacity=40;" vertex="1" parent="h6dopec1Y_itUhT0YeVJ-243">
          <mxGeometry x="54" width="185" height="29" as="geometry">
            <mxRectangle width="185" height="29" as="alternateBounds" />
          </mxGeometry>
        </mxCell>
        <mxCell id="h6dopec1Y_itUhT0YeVJ-246" value="DATETIME" style="shape=partialRectangle;html=1;whiteSpace=wrap;connectable=0;fillColor=#dae8fc;top=0;left=0;bottom=0;right=0;overflow=hidden;labelBackgroundColor=none;strokeColor=#6c8ebf;strokeWidth=0;spacing=0;spacingTop=8;spacingLeft=8;spacingRight=8;spacingBottom=6;align=left;shadow=0;rounded=1;gradientColor=#7ea6e0;fontColor=#000000;fontStyle=1;opacity=40;" vertex="1" parent="h6dopec1Y_itUhT0YeVJ-243">
          <mxGeometry x="239" width="95" height="29" as="geometry">
            <mxRectangle width="95" height="29" as="alternateBounds" />
          </mxGeometry>
        </mxCell>
        <mxCell id="228" style="shape=tableRow;horizontal=0;startSize=0;swimlaneHead=0;swimlaneBody=0;top=0;left=0;bottom=0;right=0;collapsible=0;dropTarget=0;fillColor=#dae8fc;points=[[0,0.5],[1,0.5]];portConstraint=eastwest;labelBackgroundColor=none;strokeColor=#6c8ebf;shadow=0;rounded=1;gradientColor=#7ea6e0;fontColor=#000000;fontStyle=1;opacity=40;swimlaneLine=1;" parent="215" vertex="1">
          <mxGeometry y="144" width="333.99" height="29" as="geometry" />
        </mxCell>
        <mxCell id="229" style="shape=partialRectangle;html=1;whiteSpace=wrap;connectable=0;fillColor=#dae8fc;top=0;left=0;bottom=0;right=0;overflow=hidden;labelBackgroundColor=none;strokeColor=#6c8ebf;strokeWidth=0;spacing=0;spacingTop=8;spacingLeft=8;spacingRight=8;spacingBottom=6;shadow=0;rounded=1;gradientColor=#7ea6e0;fontColor=#000000;fontStyle=1;opacity=40;" parent="228" vertex="1">
          <mxGeometry width="54" height="29" as="geometry">
            <mxRectangle width="54" height="29" as="alternateBounds" />
          </mxGeometry>
        </mxCell>
        <mxCell id="230" value="members [ ] : userId" style="shape=partialRectangle;html=1;whiteSpace=wrap;connectable=0;fillColor=#dae8fc;top=0;left=0;bottom=0;right=0;overflow=hidden;labelBackgroundColor=none;strokeColor=#6c8ebf;strokeWidth=0;spacing=0;spacingTop=8;spacingLeft=8;spacingRight=8;spacingBottom=6;align=left;shadow=0;rounded=1;gradientColor=#7ea6e0;fontColor=#000000;fontStyle=1;opacity=40;" parent="228" vertex="1">
          <mxGeometry x="54" width="185" height="29" as="geometry">
            <mxRectangle width="185" height="29" as="alternateBounds" />
          </mxGeometry>
        </mxCell>
        <mxCell id="231" value="BINARY(16)" style="shape=partialRectangle;html=1;whiteSpace=wrap;connectable=0;fillColor=#dae8fc;top=0;left=0;bottom=0;right=0;overflow=hidden;labelBackgroundColor=none;strokeColor=#6c8ebf;strokeWidth=0;spacing=0;spacingTop=8;spacingLeft=8;spacingRight=8;spacingBottom=6;align=left;shadow=0;rounded=1;gradientColor=#7ea6e0;fontColor=#000000;fontStyle=1;opacity=40;" parent="228" vertex="1">
          <mxGeometry x="239" width="95" height="29" as="geometry">
            <mxRectangle width="95" height="29" as="alternateBounds" />
          </mxGeometry>
        </mxCell>
        <mxCell id="DxMUMayIsbceb-JPfr1l-243" style="shape=tableRow;horizontal=0;startSize=0;swimlaneHead=0;swimlaneBody=0;top=0;left=0;bottom=0;right=0;collapsible=0;dropTarget=0;fillColor=#dae8fc;points=[[0,0.5],[1,0.5]];portConstraint=eastwest;labelBackgroundColor=none;strokeColor=#6c8ebf;shadow=0;rounded=1;gradientColor=#7ea6e0;fontColor=#000000;fontStyle=1;opacity=40;swimlaneLine=1;" parent="215" vertex="1">
          <mxGeometry y="173" width="333.99" height="29" as="geometry" />
        </mxCell>
        <mxCell id="DxMUMayIsbceb-JPfr1l-244" style="shape=partialRectangle;html=1;whiteSpace=wrap;connectable=0;fillColor=#dae8fc;top=0;left=0;bottom=0;right=0;overflow=hidden;labelBackgroundColor=none;strokeColor=#6c8ebf;strokeWidth=0;spacing=0;spacingTop=8;spacingLeft=8;spacingRight=8;spacingBottom=6;shadow=0;rounded=1;gradientColor=#7ea6e0;fontColor=#000000;fontStyle=1;opacity=40;" parent="DxMUMayIsbceb-JPfr1l-243" vertex="1">
          <mxGeometry width="54" height="29" as="geometry">
            <mxRectangle width="54" height="29" as="alternateBounds" />
          </mxGeometry>
        </mxCell>
        <mxCell id="DxMUMayIsbceb-JPfr1l-245" value="isFresh" style="shape=partialRectangle;html=1;whiteSpace=wrap;connectable=0;fillColor=#dae8fc;top=0;left=0;bottom=0;right=0;overflow=hidden;labelBackgroundColor=none;strokeColor=#6c8ebf;strokeWidth=0;spacing=0;spacingTop=8;spacingLeft=8;spacingRight=8;spacingBottom=6;align=left;shadow=0;rounded=1;gradientColor=#7ea6e0;fontColor=#000000;fontStyle=1;opacity=40;" parent="DxMUMayIsbceb-JPfr1l-243" vertex="1">
          <mxGeometry x="54" width="185" height="29" as="geometry">
            <mxRectangle width="185" height="29" as="alternateBounds" />
          </mxGeometry>
        </mxCell>
        <mxCell id="DxMUMayIsbceb-JPfr1l-246" value="BOOL" style="shape=partialRectangle;html=1;whiteSpace=wrap;connectable=0;fillColor=#dae8fc;top=0;left=0;bottom=0;right=0;overflow=hidden;labelBackgroundColor=none;strokeColor=#6c8ebf;strokeWidth=0;spacing=0;spacingTop=8;spacingLeft=8;spacingRight=8;spacingBottom=6;align=left;shadow=0;rounded=1;gradientColor=#7ea6e0;fontColor=#000000;fontStyle=1;opacity=40;" parent="DxMUMayIsbceb-JPfr1l-243" vertex="1">
          <mxGeometry x="239" width="95" height="29" as="geometry">
            <mxRectangle width="95" height="29" as="alternateBounds" />
          </mxGeometry>
        </mxCell>
        <mxCell id="232" style="shape=tableRow;horizontal=0;startSize=0;swimlaneHead=0;swimlaneBody=0;top=0;left=0;bottom=0;right=0;collapsible=0;dropTarget=0;fillColor=#dae8fc;points=[[0,0.5],[1,0.5]];portConstraint=eastwest;labelBackgroundColor=none;strokeColor=#6c8ebf;shadow=0;rounded=1;gradientColor=#7ea6e0;fontColor=#000000;fontStyle=1;opacity=40;" parent="215" vertex="1">
          <mxGeometry y="202" width="333.99" height="27" as="geometry" />
        </mxCell>
        <mxCell id="233" style="shape=partialRectangle;html=1;whiteSpace=wrap;connectable=0;fillColor=#dae8fc;top=0;left=0;bottom=0;right=0;overflow=hidden;labelBackgroundColor=none;strokeColor=#6c8ebf;strokeWidth=0;spacing=0;spacingTop=8;spacingLeft=8;spacingRight=8;spacingBottom=6;shadow=0;rounded=1;gradientColor=#7ea6e0;fontColor=#000000;fontStyle=1;opacity=40;" parent="232" vertex="1">
          <mxGeometry width="54" height="27" as="geometry">
            <mxRectangle width="54" height="27" as="alternateBounds" />
          </mxGeometry>
        </mxCell>
        <mxCell id="234" value="createdAt" style="shape=partialRectangle;html=1;whiteSpace=wrap;connectable=0;fillColor=#dae8fc;top=0;left=0;bottom=0;right=0;overflow=hidden;labelBackgroundColor=none;strokeColor=#6c8ebf;strokeWidth=0;spacing=0;spacingTop=8;spacingLeft=8;spacingRight=8;spacingBottom=6;align=left;shadow=0;rounded=1;gradientColor=#7ea6e0;fontColor=#000000;fontStyle=1;opacity=40;" parent="232" vertex="1">
          <mxGeometry x="54" width="185" height="27" as="geometry">
            <mxRectangle width="185" height="27" as="alternateBounds" />
          </mxGeometry>
        </mxCell>
        <mxCell id="235" value="DATETIME" style="shape=partialRectangle;html=1;whiteSpace=wrap;connectable=0;fillColor=#dae8fc;top=0;left=0;bottom=0;right=0;overflow=hidden;labelBackgroundColor=none;strokeColor=#6c8ebf;strokeWidth=0;spacing=0;spacingTop=8;spacingLeft=8;spacingRight=8;spacingBottom=6;align=left;shadow=0;rounded=1;gradientColor=#7ea6e0;fontColor=#000000;fontStyle=1;opacity=40;" parent="232" vertex="1">
          <mxGeometry x="239" width="95" height="27" as="geometry">
            <mxRectangle width="95" height="27" as="alternateBounds" />
          </mxGeometry>
        </mxCell>
        <mxCell id="236" style="shape=tableRow;horizontal=0;startSize=0;swimlaneHead=0;swimlaneBody=0;top=0;left=0;bottom=0;right=0;collapsible=0;dropTarget=0;fillColor=#dae8fc;points=[[0,0.5],[1,0.5]];portConstraint=eastwest;labelBackgroundColor=none;strokeColor=#6c8ebf;shadow=0;rounded=1;gradientColor=#7ea6e0;fontColor=#000000;fontStyle=1;opacity=40;" parent="215" vertex="1">
          <mxGeometry y="229" width="333.99" height="28" as="geometry" />
        </mxCell>
        <mxCell id="237" style="shape=partialRectangle;html=1;whiteSpace=wrap;connectable=0;fillColor=#dae8fc;top=0;left=0;bottom=0;right=0;overflow=hidden;labelBackgroundColor=none;strokeColor=#6c8ebf;strokeWidth=0;spacing=0;spacingTop=8;spacingLeft=8;spacingRight=8;spacingBottom=6;shadow=0;rounded=1;gradientColor=#7ea6e0;fontColor=#000000;fontStyle=1;opacity=40;" parent="236" vertex="1">
          <mxGeometry width="54" height="28" as="geometry">
            <mxRectangle width="54" height="28" as="alternateBounds" />
          </mxGeometry>
        </mxCell>
        <mxCell id="238" value="updatedAt" style="shape=partialRectangle;html=1;whiteSpace=wrap;connectable=0;fillColor=#dae8fc;top=0;left=0;bottom=0;right=0;overflow=hidden;labelBackgroundColor=none;strokeColor=#6c8ebf;strokeWidth=0;spacing=0;spacingTop=8;spacingLeft=8;spacingRight=8;spacingBottom=6;align=left;shadow=0;rounded=1;gradientColor=#7ea6e0;fontColor=#000000;fontStyle=1;opacity=40;" parent="236" vertex="1">
          <mxGeometry x="54" width="185" height="28" as="geometry">
            <mxRectangle width="185" height="28" as="alternateBounds" />
          </mxGeometry>
        </mxCell>
        <mxCell id="239" value="DATETIME" style="shape=partialRectangle;html=1;whiteSpace=wrap;connectable=0;fillColor=#dae8fc;top=0;left=0;bottom=0;right=0;overflow=hidden;labelBackgroundColor=none;strokeColor=#6c8ebf;strokeWidth=0;spacing=0;spacingTop=8;spacingLeft=8;spacingRight=8;spacingBottom=6;align=left;shadow=0;rounded=1;gradientColor=#7ea6e0;fontColor=#000000;fontStyle=1;opacity=40;" parent="236" vertex="1">
          <mxGeometry x="239" width="95" height="28" as="geometry">
            <mxRectangle width="95" height="28" as="alternateBounds" />
          </mxGeometry>
        </mxCell>
        <mxCell id="hIdABgxjADvX2J09Uw0K-239" style="edgeStyle=orthogonalEdgeStyle;rounded=0;hachureGap=4;orthogonalLoop=1;jettySize=auto;html=1;fontFamily=Architects Daughter;fontSource=https%3A%2F%2Ffonts.googleapis.com%2Fcss%3Ffamily%3DArchitects%2BDaughter;fontSize=16;strokeColor=#6c8bef;strokeWidth=3;opacity=70;shadow=0;" parent="1" source="224" target="XUXtn4tgAi1DHnVcITGY-225" edge="1">
          <mxGeometry relative="1" as="geometry" />
        </mxCell>
        <mxCell id="hIdABgxjADvX2J09Uw0K-256" style="edgeStyle=orthogonalEdgeStyle;rounded=0;hachureGap=4;orthogonalLoop=1;jettySize=auto;html=1;entryX=0;entryY=0.5;entryDx=0;entryDy=0;fontFamily=Architects Daughter;fontSource=https%3A%2F%2Ffonts.googleapis.com%2Fcss%3Ffamily%3DArchitects%2BDaughter;fontSize=16;strokeColor=#6c8bef;strokeWidth=3;opacity=70;shadow=0;" parent="1" target="tcfv8VdbGHe9oQWNBsRK-215" edge="1">
          <mxGeometry relative="1" as="geometry">
            <Array as="points">
              <mxPoint x="832" y="594" />
              <mxPoint x="832" y="634" />
            </Array>
          </mxGeometry>
        </mxCell>
        <mxCell id="hIdABgxjADvX2J09Uw0K-257" value="Notifications" style="shape=table;startSize=30;container=1;collapsible=0;childLayout=tableLayout;fontStyle=5;align=left;labelBackgroundColor=none;spacing=6;swimlaneLine=1;fillColor=#ffcc99;strokeColor=#36393d;shadow=1;rounded=1;swimlaneFillColor=default;fontFamily=Helvetica;fontSize=14;opacity=40;gradientColor=default;fontColor=#000000;" parent="1" vertex="1">
          <mxGeometry x="917" y="177.51" width="333.99" height="199.5882209329045" as="geometry" />
        </mxCell>
        <mxCell id="hIdABgxjADvX2J09Uw0K-258" value="" style="shape=tableRow;horizontal=0;startSize=0;swimlaneHead=0;swimlaneBody=0;top=0;left=0;bottom=0;right=0;collapsible=0;dropTarget=0;fillColor=#dae8fc;points=[[0,0.5],[1,0.5]];portConstraint=eastwest;labelBackgroundColor=none;swimlaneLine=0;strokeColor=#6c8ebf;shadow=0;rounded=1;gradientColor=#7ea6e0;fontColor=#000000;fontStyle=1;opacity=40;" parent="hIdABgxjADvX2J09Uw0K-257" vertex="1">
          <mxGeometry y="30" width="333.99" height="29" as="geometry" />
        </mxCell>
        <mxCell id="hIdABgxjADvX2J09Uw0K-259" value="PK" style="shape=partialRectangle;html=1;whiteSpace=wrap;connectable=0;fillColor=#dae8fc;top=0;left=0;bottom=0;right=0;overflow=hidden;labelBackgroundColor=none;strokeColor=#6c8ebf;strokeWidth=0;spacing=0;spacingTop=8;spacingLeft=8;spacingRight=8;spacingBottom=6;shadow=0;rounded=1;gradientColor=#7ea6e0;fontColor=#000000;fontStyle=1;opacity=40;" parent="hIdABgxjADvX2J09Uw0K-258" vertex="1">
          <mxGeometry width="54" height="29" as="geometry">
            <mxRectangle width="54" height="29" as="alternateBounds" />
          </mxGeometry>
        </mxCell>
        <mxCell id="hIdABgxjADvX2J09Uw0K-260" value="_id" style="shape=partialRectangle;html=1;whiteSpace=wrap;connectable=0;fillColor=#dae8fc;top=0;left=0;bottom=0;right=0;overflow=hidden;labelBackgroundColor=none;strokeColor=#6c8ebf;strokeWidth=0;align=left;spacing=0;spacingTop=8;spacingLeft=8;spacingRight=8;spacingBottom=6;shadow=0;rounded=1;gradientColor=#7ea6e0;fontColor=#000000;fontStyle=1;opacity=40;" parent="hIdABgxjADvX2J09Uw0K-258" vertex="1">
          <mxGeometry x="54" width="185" height="29" as="geometry">
            <mxRectangle width="185" height="29" as="alternateBounds" />
          </mxGeometry>
        </mxCell>
        <mxCell id="hIdABgxjADvX2J09Uw0K-261" value="BINARY(16)" style="shape=partialRectangle;html=1;whiteSpace=wrap;connectable=0;fillColor=#dae8fc;top=0;left=0;bottom=0;right=0;overflow=hidden;labelBackgroundColor=none;strokeColor=#6c8ebf;strokeWidth=0;align=left;spacing=0;spacingTop=8;spacingLeft=8;spacingRight=8;spacingBottom=6;shadow=0;rounded=1;gradientColor=#7ea6e0;fontColor=#000000;fontStyle=1;opacity=40;" parent="hIdABgxjADvX2J09Uw0K-258" vertex="1">
          <mxGeometry x="239" width="95" height="29" as="geometry">
            <mxRectangle width="95" height="29" as="alternateBounds" />
          </mxGeometry>
        </mxCell>
        <mxCell id="hIdABgxjADvX2J09Uw0K-287" style="shape=tableRow;horizontal=0;startSize=0;swimlaneHead=0;swimlaneBody=0;top=0;left=0;bottom=0;right=0;collapsible=0;dropTarget=0;fillColor=#dae8fc;points=[[0,0.5],[1,0.5]];portConstraint=eastwest;labelBackgroundColor=none;swimlaneLine=0;strokeColor=#6c8ebf;shadow=0;rounded=1;gradientColor=#7ea6e0;fontColor=#000000;fontStyle=1;opacity=40;" parent="hIdABgxjADvX2J09Uw0K-257" vertex="1">
          <mxGeometry y="59" width="333.99" height="29" as="geometry" />
        </mxCell>
        <mxCell id="hIdABgxjADvX2J09Uw0K-288" style="shape=partialRectangle;html=1;whiteSpace=wrap;connectable=0;fillColor=#dae8fc;top=0;left=0;bottom=0;right=0;overflow=hidden;labelBackgroundColor=none;strokeColor=#6c8ebf;strokeWidth=0;spacing=0;spacingTop=8;spacingLeft=8;spacingRight=8;spacingBottom=6;shadow=0;rounded=1;gradientColor=#7ea6e0;fontColor=#000000;fontStyle=1;opacity=40;" parent="hIdABgxjADvX2J09Uw0K-287" vertex="1">
          <mxGeometry width="54" height="29" as="geometry">
            <mxRectangle width="54" height="29" as="alternateBounds" />
          </mxGeometry>
        </mxCell>
        <mxCell id="hIdABgxjADvX2J09Uw0K-289" value="userId&lt;span style=&quot;white-space: pre;&quot;&gt;&#x9;&lt;/span&gt;" style="shape=partialRectangle;html=1;whiteSpace=wrap;connectable=0;fillColor=#dae8fc;top=0;left=0;bottom=0;right=0;overflow=hidden;labelBackgroundColor=none;strokeColor=#6c8ebf;strokeWidth=0;align=left;spacing=0;spacingTop=8;spacingLeft=8;spacingRight=8;spacingBottom=6;shadow=0;rounded=1;gradientColor=#7ea6e0;fontColor=#000000;fontStyle=1;opacity=40;" parent="hIdABgxjADvX2J09Uw0K-287" vertex="1">
          <mxGeometry x="54" width="185" height="29" as="geometry">
            <mxRectangle width="185" height="29" as="alternateBounds" />
          </mxGeometry>
        </mxCell>
        <mxCell id="hIdABgxjADvX2J09Uw0K-290" value="BINARY(16)" style="shape=partialRectangle;html=1;whiteSpace=wrap;connectable=0;fillColor=#dae8fc;top=0;left=0;bottom=0;right=0;overflow=hidden;labelBackgroundColor=none;strokeColor=#6c8ebf;strokeWidth=0;align=left;spacing=0;spacingTop=8;spacingLeft=8;spacingRight=8;spacingBottom=6;shadow=0;rounded=1;gradientColor=#7ea6e0;fontColor=#000000;fontStyle=1;opacity=40;" parent="hIdABgxjADvX2J09Uw0K-287" vertex="1">
          <mxGeometry x="239" width="95" height="29" as="geometry">
            <mxRectangle width="95" height="29" as="alternateBounds" />
          </mxGeometry>
        </mxCell>
        <mxCell id="hIdABgxjADvX2J09Uw0K-262" style="shape=tableRow;horizontal=0;startSize=0;swimlaneHead=0;swimlaneBody=0;top=0;left=0;bottom=0;right=0;collapsible=0;dropTarget=0;fillColor=#dae8fc;points=[[0,0.5],[1,0.5]];portConstraint=eastwest;labelBackgroundColor=none;strokeColor=#6c8ebf;shadow=0;rounded=1;gradientColor=#7ea6e0;fontColor=#000000;fontStyle=1;opacity=40;" parent="hIdABgxjADvX2J09Uw0K-257" vertex="1">
          <mxGeometry y="88" width="333.99" height="29" as="geometry" />
        </mxCell>
        <mxCell id="hIdABgxjADvX2J09Uw0K-263" value="" style="shape=partialRectangle;html=1;whiteSpace=wrap;connectable=0;fillColor=#dae8fc;top=0;left=0;bottom=0;right=0;overflow=hidden;labelBackgroundColor=none;strokeColor=#6c8ebf;strokeWidth=0;spacing=0;spacingTop=8;spacingLeft=8;spacingRight=8;spacingBottom=6;shadow=0;rounded=1;gradientColor=#7ea6e0;fontColor=#000000;fontStyle=1;opacity=40;" parent="hIdABgxjADvX2J09Uw0K-262" vertex="1">
          <mxGeometry width="54" height="29" as="geometry">
            <mxRectangle width="54" height="29" as="alternateBounds" />
          </mxGeometry>
        </mxCell>
        <mxCell id="hIdABgxjADvX2J09Uw0K-264" value="inbox [ ]" style="shape=partialRectangle;html=1;whiteSpace=wrap;connectable=0;fillColor=#dae8fc;top=0;left=0;bottom=0;right=0;overflow=hidden;labelBackgroundColor=none;strokeColor=#6c8ebf;strokeWidth=0;spacing=0;spacingTop=8;spacingLeft=8;spacingRight=8;spacingBottom=6;align=left;shadow=0;rounded=1;gradientColor=#7ea6e0;fontColor=#000000;fontStyle=1;opacity=40;" parent="hIdABgxjADvX2J09Uw0K-262" vertex="1">
          <mxGeometry x="54" width="185" height="29" as="geometry">
            <mxRectangle width="185" height="29" as="alternateBounds" />
          </mxGeometry>
        </mxCell>
        <mxCell id="hIdABgxjADvX2J09Uw0K-265" value="JSON" style="shape=partialRectangle;html=1;whiteSpace=wrap;connectable=0;fillColor=#dae8fc;top=0;left=0;bottom=0;right=0;overflow=hidden;labelBackgroundColor=none;strokeColor=#6c8ebf;strokeWidth=0;spacing=0;spacingTop=8;spacingLeft=8;spacingRight=8;spacingBottom=6;align=left;shadow=0;rounded=1;gradientColor=#7ea6e0;fontColor=#000000;fontStyle=1;opacity=40;" parent="hIdABgxjADvX2J09Uw0K-262" vertex="1">
          <mxGeometry x="239" width="95" height="29" as="geometry">
            <mxRectangle width="95" height="29" as="alternateBounds" />
          </mxGeometry>
        </mxCell>
        <mxCell id="hIdABgxjADvX2J09Uw0K-266" style="shape=tableRow;horizontal=0;startSize=0;swimlaneHead=0;swimlaneBody=0;top=0;left=0;bottom=0;right=0;collapsible=0;dropTarget=0;fillColor=#dae8fc;points=[[0,0.5],[1,0.5]];portConstraint=eastwest;labelBackgroundColor=none;strokeColor=#6c8ebf;shadow=0;rounded=1;gradientColor=#7ea6e0;fontColor=#000000;fontStyle=1;opacity=40;" parent="hIdABgxjADvX2J09Uw0K-257" vertex="1">
          <mxGeometry y="117" width="333.99" height="28" as="geometry" />
        </mxCell>
        <mxCell id="hIdABgxjADvX2J09Uw0K-267" style="shape=partialRectangle;html=1;whiteSpace=wrap;connectable=0;fillColor=#dae8fc;top=0;left=0;bottom=0;right=0;overflow=hidden;labelBackgroundColor=none;strokeColor=#6c8ebf;strokeWidth=0;spacing=0;spacingTop=8;spacingLeft=8;spacingRight=8;spacingBottom=6;shadow=0;rounded=1;gradientColor=#7ea6e0;fontColor=#000000;fontStyle=1;opacity=40;" parent="hIdABgxjADvX2J09Uw0K-266" vertex="1">
          <mxGeometry width="54" height="28" as="geometry">
            <mxRectangle width="54" height="28" as="alternateBounds" />
          </mxGeometry>
        </mxCell>
        <mxCell id="hIdABgxjADvX2J09Uw0K-268" value="isFresh" style="shape=partialRectangle;html=1;whiteSpace=wrap;connectable=0;fillColor=#dae8fc;top=0;left=0;bottom=0;right=0;overflow=hidden;labelBackgroundColor=none;strokeColor=#6c8ebf;strokeWidth=0;spacing=0;spacingTop=8;spacingLeft=8;spacingRight=8;spacingBottom=6;align=left;shadow=0;rounded=1;gradientColor=#7ea6e0;fontColor=#000000;fontStyle=1;opacity=40;" parent="hIdABgxjADvX2J09Uw0K-266" vertex="1">
          <mxGeometry x="54" width="185" height="28" as="geometry">
            <mxRectangle width="185" height="28" as="alternateBounds" />
          </mxGeometry>
        </mxCell>
        <mxCell id="hIdABgxjADvX2J09Uw0K-269" value="BOOL" style="shape=partialRectangle;html=1;whiteSpace=wrap;connectable=0;fillColor=#dae8fc;top=0;left=0;bottom=0;right=0;overflow=hidden;labelBackgroundColor=none;strokeColor=#6c8ebf;strokeWidth=0;spacing=0;spacingTop=8;spacingLeft=8;spacingRight=8;spacingBottom=6;align=left;shadow=0;rounded=1;gradientColor=#7ea6e0;fontColor=#000000;fontStyle=1;opacity=40;" parent="hIdABgxjADvX2J09Uw0K-266" vertex="1">
          <mxGeometry x="239" width="95" height="28" as="geometry">
            <mxRectangle width="95" height="28" as="alternateBounds" />
          </mxGeometry>
        </mxCell>
        <mxCell id="hIdABgxjADvX2J09Uw0K-274" style="shape=tableRow;horizontal=0;startSize=0;swimlaneHead=0;swimlaneBody=0;top=0;left=0;bottom=0;right=0;collapsible=0;dropTarget=0;fillColor=#dae8fc;points=[[0,0.5],[1,0.5]];portConstraint=eastwest;labelBackgroundColor=none;strokeColor=#6c8ebf;shadow=0;rounded=1;gradientColor=#7ea6e0;fontColor=#000000;fontStyle=1;opacity=40;" parent="hIdABgxjADvX2J09Uw0K-257" vertex="1">
          <mxGeometry y="145" width="333.99" height="27" as="geometry" />
        </mxCell>
        <mxCell id="hIdABgxjADvX2J09Uw0K-275" style="shape=partialRectangle;html=1;whiteSpace=wrap;connectable=0;fillColor=#dae8fc;top=0;left=0;bottom=0;right=0;overflow=hidden;labelBackgroundColor=none;strokeColor=#6c8ebf;strokeWidth=0;spacing=0;spacingTop=8;spacingLeft=8;spacingRight=8;spacingBottom=6;shadow=0;rounded=1;gradientColor=#7ea6e0;fontColor=#000000;fontStyle=1;opacity=40;" parent="hIdABgxjADvX2J09Uw0K-274" vertex="1">
          <mxGeometry width="54" height="27" as="geometry">
            <mxRectangle width="54" height="27" as="alternateBounds" />
          </mxGeometry>
        </mxCell>
        <mxCell id="hIdABgxjADvX2J09Uw0K-276" value="createdAt" style="shape=partialRectangle;html=1;whiteSpace=wrap;connectable=0;fillColor=#dae8fc;top=0;left=0;bottom=0;right=0;overflow=hidden;labelBackgroundColor=none;strokeColor=#6c8ebf;strokeWidth=0;spacing=0;spacingTop=8;spacingLeft=8;spacingRight=8;spacingBottom=6;align=left;shadow=0;rounded=1;gradientColor=#7ea6e0;fontColor=#000000;fontStyle=1;opacity=40;" parent="hIdABgxjADvX2J09Uw0K-274" vertex="1">
          <mxGeometry x="54" width="185" height="27" as="geometry">
            <mxRectangle width="185" height="27" as="alternateBounds" />
          </mxGeometry>
        </mxCell>
        <mxCell id="hIdABgxjADvX2J09Uw0K-277" value="DATETIME" style="shape=partialRectangle;html=1;whiteSpace=wrap;connectable=0;fillColor=#dae8fc;top=0;left=0;bottom=0;right=0;overflow=hidden;labelBackgroundColor=none;strokeColor=#6c8ebf;strokeWidth=0;spacing=0;spacingTop=8;spacingLeft=8;spacingRight=8;spacingBottom=6;align=left;shadow=0;rounded=1;gradientColor=#7ea6e0;fontColor=#000000;fontStyle=1;opacity=40;" parent="hIdABgxjADvX2J09Uw0K-274" vertex="1">
          <mxGeometry x="239" width="95" height="27" as="geometry">
            <mxRectangle width="95" height="27" as="alternateBounds" />
          </mxGeometry>
        </mxCell>
        <mxCell id="hIdABgxjADvX2J09Uw0K-278" style="shape=tableRow;horizontal=0;startSize=0;swimlaneHead=0;swimlaneBody=0;top=0;left=0;bottom=0;right=0;collapsible=0;dropTarget=0;fillColor=#dae8fc;points=[[0,0.5],[1,0.5]];portConstraint=eastwest;labelBackgroundColor=none;strokeColor=#6c8ebf;shadow=0;rounded=1;gradientColor=#7ea6e0;fontColor=#000000;fontStyle=1;opacity=40;" parent="hIdABgxjADvX2J09Uw0K-257" vertex="1">
          <mxGeometry y="172" width="333.99" height="28" as="geometry" />
        </mxCell>
        <mxCell id="hIdABgxjADvX2J09Uw0K-279" style="shape=partialRectangle;html=1;whiteSpace=wrap;connectable=0;fillColor=#dae8fc;top=0;left=0;bottom=0;right=0;overflow=hidden;labelBackgroundColor=none;strokeColor=#6c8ebf;strokeWidth=0;spacing=0;spacingTop=8;spacingLeft=8;spacingRight=8;spacingBottom=6;shadow=0;rounded=1;gradientColor=#7ea6e0;fontColor=#000000;fontStyle=1;opacity=40;" parent="hIdABgxjADvX2J09Uw0K-278" vertex="1">
          <mxGeometry width="54" height="28" as="geometry">
            <mxRectangle width="54" height="28" as="alternateBounds" />
          </mxGeometry>
        </mxCell>
        <mxCell id="hIdABgxjADvX2J09Uw0K-280" value="updatedAt" style="shape=partialRectangle;html=1;whiteSpace=wrap;connectable=0;fillColor=#dae8fc;top=0;left=0;bottom=0;right=0;overflow=hidden;labelBackgroundColor=none;strokeColor=#6c8ebf;strokeWidth=0;spacing=0;spacingTop=8;spacingLeft=8;spacingRight=8;spacingBottom=6;align=left;shadow=0;rounded=1;gradientColor=#7ea6e0;fontColor=#000000;fontStyle=1;opacity=40;" parent="hIdABgxjADvX2J09Uw0K-278" vertex="1">
          <mxGeometry x="54" width="185" height="28" as="geometry">
            <mxRectangle width="185" height="28" as="alternateBounds" />
          </mxGeometry>
        </mxCell>
        <mxCell id="hIdABgxjADvX2J09Uw0K-281" value="DATETIME" style="shape=partialRectangle;html=1;whiteSpace=wrap;connectable=0;fillColor=#dae8fc;top=0;left=0;bottom=0;right=0;overflow=hidden;labelBackgroundColor=none;strokeColor=#6c8ebf;strokeWidth=0;spacing=0;spacingTop=8;spacingLeft=8;spacingRight=8;spacingBottom=6;align=left;shadow=0;rounded=1;gradientColor=#7ea6e0;fontColor=#000000;fontStyle=1;opacity=40;" parent="hIdABgxjADvX2J09Uw0K-278" vertex="1">
          <mxGeometry x="239" width="95" height="28" as="geometry">
            <mxRectangle width="95" height="28" as="alternateBounds" />
          </mxGeometry>
        </mxCell>
        <mxCell id="CIxqYpvnw2HmY0Q8ODjI-246" style="edgeStyle=orthogonalEdgeStyle;rounded=0;hachureGap=4;orthogonalLoop=1;jettySize=auto;html=1;entryX=1;entryY=0.5;entryDx=0;entryDy=0;fontFamily=Architects Daughter;fontSource=https%3A%2F%2Ffonts.googleapis.com%2Fcss%3Ffamily%3DArchitects%2BDaughter;fontSize=16;strokeColor=#6c8bef;strokeWidth=3;opacity=70;shadow=0;" parent="1" source="hIdABgxjADvX2J09Uw0K-250" target="b77LTyn4byEdy7xEsxy5-223" edge="1">
          <mxGeometry relative="1" as="geometry" />
        </mxCell>
        <mxCell id="CIxqYpvnw2HmY0Q8ODjI-247" style="edgeStyle=orthogonalEdgeStyle;rounded=0;hachureGap=4;orthogonalLoop=1;jettySize=auto;html=1;entryX=0;entryY=0.5;entryDx=0;entryDy=0;fontFamily=Architects Daughter;fontSource=https%3A%2F%2Ffonts.googleapis.com%2Fcss%3Ffamily%3DArchitects%2BDaughter;fontSize=16;strokeColor=#6c8bef;strokeWidth=3;opacity=70;shadow=0;" parent="1" source="b77LTyn4byEdy7xEsxy5-227" target="21" edge="1">
          <mxGeometry relative="1" as="geometry">
            <Array as="points">
              <mxPoint x="454" y="477" />
              <mxPoint x="454" y="304" />
            </Array>
          </mxGeometry>
        </mxCell>
        <mxCell id="CIxqYpvnw2HmY0Q8ODjI-248" style="edgeStyle=orthogonalEdgeStyle;rounded=0;hachureGap=4;orthogonalLoop=1;jettySize=auto;html=1;entryX=0;entryY=0.5;entryDx=0;entryDy=0;fontFamily=Architects Daughter;fontSource=https%3A%2F%2Ffonts.googleapis.com%2Fcss%3Ffamily%3DArchitects%2BDaughter;fontSize=16;strokeColor=#6c8bef;strokeWidth=3;opacity=70;shadow=0;" parent="1" source="157" target="21" edge="1">
          <mxGeometry relative="1" as="geometry" />
        </mxCell>
        <mxCell id="CIxqYpvnw2HmY0Q8ODjI-249" style="edgeStyle=orthogonalEdgeStyle;rounded=0;hachureGap=4;orthogonalLoop=1;jettySize=auto;html=1;entryX=1;entryY=0.5;entryDx=0;entryDy=0;fontFamily=Architects Daughter;fontSource=https%3A%2F%2Ffonts.googleapis.com%2Fcss%3Ffamily%3DArchitects%2BDaughter;fontSize=16;strokeColor=#6c8bef;strokeWidth=3;opacity=70;shadow=0;" parent="1" source="XUXtn4tgAi1DHnVcITGY-273" target="153" edge="1">
          <mxGeometry relative="1" as="geometry">
            <Array as="points">
              <mxPoint x="489" y="500" />
              <mxPoint x="489" y="210" />
            </Array>
          </mxGeometry>
        </mxCell>
        <mxCell id="CIxqYpvnw2HmY0Q8ODjI-250" style="edgeStyle=orthogonalEdgeStyle;rounded=0;hachureGap=4;orthogonalLoop=1;jettySize=auto;html=1;fontFamily=Architects Daughter;fontSource=https%3A%2F%2Ffonts.googleapis.com%2Fcss%3Ffamily%3DArchitects%2BDaughter;fontSize=16;strokeColor=#6c8bef;strokeWidth=3;opacity=70;shadow=0;" parent="1" target="21" edge="1">
          <mxGeometry relative="1" as="geometry">
            <Array as="points">
              <mxPoint x="884" y="765" />
              <mxPoint x="884" y="304" />
            </Array>
            <mxPoint x="920" y="765" as="sourcePoint" />
          </mxGeometry>
        </mxCell>
        <mxCell id="CIxqYpvnw2HmY0Q8ODjI-251" style="edgeStyle=orthogonalEdgeStyle;rounded=0;hachureGap=4;orthogonalLoop=1;jettySize=auto;html=1;entryX=1;entryY=0.5;entryDx=0;entryDy=0;fontFamily=Architects Daughter;fontSource=https%3A%2F%2Ffonts.googleapis.com%2Fcss%3Ffamily%3DArchitects%2BDaughter;fontSize=16;strokeColor=#6c8bef;strokeWidth=3;opacity=70;shadow=0;" parent="1" source="tcfv8VdbGHe9oQWNBsRK-223" target="216" edge="1">
          <mxGeometry relative="1" as="geometry" />
        </mxCell>
        <mxCell id="CIxqYpvnw2HmY0Q8ODjI-252" style="edgeStyle=orthogonalEdgeStyle;rounded=0;hachureGap=4;orthogonalLoop=1;jettySize=auto;html=1;fontFamily=Architects Daughter;fontSource=https%3A%2F%2Ffonts.googleapis.com%2Fcss%3Ffamily%3DArchitects%2BDaughter;fontSize=16;strokeColor=#6c8bef;strokeWidth=3;opacity=70;shadow=0;" parent="1" source="hIdABgxjADvX2J09Uw0K-297" target="hIdABgxjADvX2J09Uw0K-258" edge="1">
          <mxGeometry relative="1" as="geometry">
            <Array as="points">
              <mxPoint x="845" y="564" />
              <mxPoint x="845" y="222" />
            </Array>
          </mxGeometry>
        </mxCell>
        <mxCell id="CIxqYpvnw2HmY0Q8ODjI-253" style="edgeStyle=orthogonalEdgeStyle;rounded=0;hachureGap=4;orthogonalLoop=1;jettySize=auto;html=1;fontFamily=Architects Daughter;fontSource=https%3A%2F%2Ffonts.googleapis.com%2Fcss%3Ffamily%3DArchitects%2BDaughter;fontSize=16;strokeColor=#6c8bef;strokeWidth=3;opacity=70;shadow=0;" parent="1" source="hIdABgxjADvX2J09Uw0K-287" target="21" edge="1">
          <mxGeometry relative="1" as="geometry">
            <Array as="points">
              <mxPoint x="835" y="251" />
              <mxPoint x="835" y="304" />
            </Array>
          </mxGeometry>
        </mxCell>
        <mxCell id="h6dopec1Y_itUhT0YeVJ-247" style="edgeStyle=orthogonalEdgeStyle;rounded=0;hachureGap=4;orthogonalLoop=1;jettySize=auto;html=1;entryX=1;entryY=0.5;entryDx=0;entryDy=0;fontFamily=Architects Daughter;fontSource=https%3A%2F%2Ffonts.googleapis.com%2Fcss%3Ffamily%3DArchitects%2BDaughter;fontSize=16;strokeColor=#6c8bef;strokeWidth=3;opacity=70;shadow=0;" edge="1" parent="1" source="XUXtn4tgAi1DHnVcITGY-269" target="XUXtn4tgAi1DHnVcITGY-225">
          <mxGeometry relative="1" as="geometry">
            <Array as="points">
              <mxPoint x="822" y="472" />
              <mxPoint x="822" y="699" />
            </Array>
          </mxGeometry>
        </mxCell>
      </root>
    </mxGraphModel>
  </diagram>
</mxfile>
